<svg width="21" height="20" viewBox="0 0 21 20" fill="none" xmlns="http://www.w3.org/2000/svg">
<path d="M18.7522 7.76032C18.556 7.79315 18.3809 7.90256 18.2654 8.06449C18.1499 8.22641 18.1034 8.42758 18.1363 8.62376C18.2124 9.07855 18.2507 9.53889 18.2506 10C18.2524 12.0196 17.5102 13.969 16.1656 15.4759C15.3292 14.2638 14.153 13.3261 12.785 12.7806C13.5198 12.2019 14.056 11.4085 14.3191 10.5109C14.5821 9.61321 14.5589 8.65591 14.2526 7.77209C13.9463 6.88826 13.3722 6.12184 12.6102 5.57941C11.8482 5.03697 10.936 4.74549 10.0006 4.74549C9.06525 4.74549 8.15311 5.03697 7.39107 5.57941C6.62902 6.12184 6.05495 6.88826 5.74868 7.77209C5.44242 8.65591 5.41918 9.61321 5.6822 10.5109C5.94522 11.4085 6.48143 12.2019 7.21626 12.7806C5.84828 13.3261 4.6721 14.2638 3.83564 15.4759C2.78068 14.2872 2.09158 12.819 1.85118 11.2479C1.61077 9.67677 1.82931 8.06967 2.48051 6.61982C3.13171 5.16997 4.18785 3.93909 5.52194 3.07517C6.85602 2.21126 8.41126 1.75109 10.0006 1.75001C10.4618 1.74994 10.9221 1.78819 11.3769 1.86439C11.5722 1.8952 11.7717 1.84766 11.9322 1.73209C12.0926 1.61653 12.2009 1.4423 12.2335 1.24731C12.2661 1.05231 12.2204 0.852316 12.1064 0.690833C11.9923 0.52935 11.8191 0.41944 11.6244 0.385011C9.58761 0.0423685 7.49464 0.355887 5.64767 1.2803C3.80069 2.20471 2.29529 3.69218 1.34881 5.52795C0.402327 7.36371 0.0637483 9.45277 0.381957 11.4935C0.700165 13.5342 1.65869 15.421 3.11915 16.8815C4.5796 18.342 6.46641 19.3005 8.50714 19.6187C10.5479 19.9369 12.6369 19.5983 14.4727 18.6518C16.3085 17.7054 17.7959 16.2 18.7203 14.353C19.6448 12.506 19.9583 10.413 19.6156 8.37626C19.5828 8.18009 19.4734 8.00499 19.3115 7.88948C19.1495 7.77397 18.9484 7.72751 18.7522 7.76032ZM7.00064 9.25001C7.00064 8.65667 7.17658 8.07665 7.50623 7.5833C7.83587 7.08995 8.30441 6.70543 8.85258 6.47837C9.40076 6.25131 10.004 6.1919 10.5859 6.30765C11.1678 6.42341 11.7024 6.70913 12.122 7.12869C12.5415 7.54825 12.8272 8.0828 12.943 8.66474C13.0587 9.24668 12.9993 9.84988 12.7723 10.3981C12.5452 10.9462 12.1607 11.4148 11.6673 11.7444C11.174 12.0741 10.594 12.25 10.0006 12.25C9.20499 12.25 8.44192 11.9339 7.87931 11.3713C7.31671 10.8087 7.00064 10.0457 7.00064 9.25001ZM4.94564 16.5156C5.4882 15.6671 6.23564 14.9688 7.11906 14.4851C8.00248 14.0014 8.99346 13.7478 10.0006 13.7478C11.0078 13.7478 11.9988 14.0014 12.8822 14.4851C13.7656 14.9688 14.5131 15.6671 15.0556 16.5156C13.6103 17.6397 11.8316 18.2499 10.0006 18.2499C8.16968 18.2499 6.39095 17.6397 4.94564 16.5156ZM20.2813 2.28064L17.2813 5.28064C17.2116 5.35037 17.1289 5.40569 17.0378 5.44343C16.9468 5.48117 16.8492 5.5006 16.7506 5.5006C16.6521 5.5006 16.5545 5.48117 16.4634 5.44343C16.3724 5.40569 16.2897 5.35037 16.22 5.28064L14.72 3.78064C14.6503 3.71095 14.5951 3.62823 14.5573 3.53718C14.5196 3.44614 14.5002 3.34856 14.5002 3.25001C14.5002 3.15146 14.5196 3.05388 14.5573 2.96284C14.5951 2.87179 14.6503 2.78907 14.72 2.71939C14.8607 2.57866 15.0516 2.49959 15.2506 2.49959C15.3492 2.49959 15.4468 2.519 15.5378 2.55672C15.6289 2.59443 15.7116 2.6497 15.7813 2.71939L16.7506 3.6897L19.22 1.21939C19.2897 1.1497 19.3724 1.09443 19.4635 1.05672C19.5545 1.019 19.6521 0.999594 19.7506 0.999594C19.8492 0.999594 19.9468 1.019 20.0378 1.05672C20.1289 1.09443 20.2116 1.1497 20.2813 1.21939C20.3509 1.28907 20.4062 1.37179 20.4439 1.46284C20.4816 1.55388 20.5011 1.65146 20.5011 1.75001C20.5011 1.84856 20.4816 1.94614 20.4439 2.03718C20.4062 2.12823 20.3509 2.21095 20.2813 2.28064Z" fill="#DFF994"/>
</svg>
