<svg width="19" height="18" viewBox="0 0 19 18" fill="none" xmlns="http://www.w3.org/2000/svg">
<path d="M10.75 4.49997V8.57528L14.1363 10.6068C14.3068 10.7093 14.4297 10.8753 14.4779 11.0683C14.5261 11.2614 14.4956 11.4656 14.3931 11.6362C14.2907 11.8068 14.1247 11.9297 13.9316 11.9778C13.7386 12.026 13.5343 11.9955 13.3638 11.8931L9.61375 9.64309C9.50276 9.57641 9.41093 9.48213 9.34719 9.36943C9.28344 9.25673 9.24996 9.12945 9.25 8.99997V4.49997C9.25 4.30105 9.32902 4.11029 9.46967 3.96964C9.61032 3.82898 9.80109 3.74997 10 3.74997C10.1989 3.74997 10.3897 3.82898 10.5303 3.96964C10.671 4.11029 10.75 4.30105 10.75 4.49997ZM10 -3.32746e-05C8.81687 -0.00298035 7.64491 0.228748 6.55193 0.681742C5.45895 1.13474 4.46667 1.8 3.6325 2.63903C2.95094 3.32903 2.34531 3.99278 1.75 4.68747V2.99997C1.75 2.80105 1.67098 2.61029 1.53033 2.46964C1.38968 2.32898 1.19891 2.24997 1 2.24997C0.801088 2.24997 0.610322 2.32898 0.46967 2.46964C0.329018 2.61029 0.25 2.80105 0.25 2.99997V6.74997C0.25 6.94888 0.329018 7.13965 0.46967 7.2803C0.610322 7.42095 0.801088 7.49997 1 7.49997H4.75C4.94891 7.49997 5.13968 7.42095 5.28033 7.2803C5.42098 7.13965 5.5 6.94888 5.5 6.74997C5.5 6.55105 5.42098 6.36029 5.28033 6.21964C5.13968 6.07899 4.94891 5.99997 4.75 5.99997H2.59375C3.26406 5.21059 3.93156 4.46715 4.69281 3.69653C5.73518 2.65417 7.0616 1.9421 8.50635 1.64929C9.95109 1.35648 11.4501 1.49591 12.816 2.05017C14.182 2.60443 15.3543 3.54893 16.1866 4.76566C17.0188 5.98239 17.474 7.41739 17.4953 8.89136C17.5166 10.3653 17.1031 11.8129 16.3064 13.0532C15.5098 14.2935 14.3652 15.2715 13.0159 15.865C11.6665 16.4586 10.1722 16.6413 8.71959 16.3904C7.26698 16.1395 5.92052 15.4661 4.84844 14.4543C4.77679 14.3866 4.6925 14.3337 4.60039 14.2986C4.50828 14.2634 4.41015 14.2468 4.3116 14.2495C4.21305 14.2523 4.11602 14.2745 4.02604 14.3148C3.93606 14.3551 3.8549 14.4127 3.78719 14.4843C3.71947 14.556 3.66654 14.6403 3.6314 14.7324C3.59626 14.8245 3.57961 14.9226 3.5824 15.0212C3.58518 15.1197 3.60735 15.2168 3.64764 15.3067C3.68792 15.3967 3.74554 15.4779 3.81719 15.5456C4.88542 16.5537 6.18414 17.285 7.6 17.6757C9.01587 18.0664 10.5058 18.1047 11.9399 17.7871C13.3739 17.4696 14.7085 16.8059 15.827 15.854C16.9456 14.9021 17.8142 13.6908 18.357 12.326C18.8998 10.9612 19.1003 9.48433 18.9411 8.0242C18.7818 6.56408 18.2677 5.16511 17.4434 3.9494C16.6192 2.73369 15.5099 1.73819 14.2125 1.04976C12.915 0.36134 11.4688 0.00092272 10 -3.32746e-05Z" fill="#DFF994"/>
</svg>
