<svg width="981" height="758" viewBox="0 0 981 758" fill="none" xmlns="http://www.w3.org/2000/svg">
<path fill-rule="evenodd" clip-rule="evenodd" d="M942 -201V393.015C942 479.172 872.156 549.015 786 549.015H226C197.281 549.015 174 572.297 174 601.015V879H70V601.015C70 514.859 139.844 445.015 226 445.015H786C814.719 445.015 838 421.734 838 393.015V-201H942Z" fill="#282828"/>
<path fill-rule="evenodd" clip-rule="evenodd" d="M942 -231V363.015C942 449.172 872.156 519.015 786 519.015H226C197.281 519.015 174 542.297 174 571.015V1019H70V571.015C70 484.859 139.844 415.015 226 415.015H786C814.719 415.015 838 391.734 838 363.015V-231H942Z" fill="#343434"/>
<path fill-rule="evenodd" clip-rule="evenodd" d="M893 15.3812V-31.8699H887V15.3812H893ZM893 89.6331V42.382H887V89.6331H893ZM893 163.885V116.634H887V163.885H893ZM893 238.137V190.886H887V238.137H893ZM893 312.389V265.138H887V312.389H893ZM893 363.015V339.39H887V363.015C887 370.529 886.18 377.848 884.626 384.888L883.979 387.818L889.838 389.111L890.485 386.181C892.132 378.719 893 370.967 893 363.015ZM876.253 420.515L877.867 417.986L872.81 414.758L871.195 417.286C863.266 429.708 852.693 440.281 840.271 448.211L837.743 449.825L840.971 454.882L843.5 453.268C856.657 444.869 867.853 433.672 876.253 420.515ZM809.166 467.5L812.096 466.853L810.802 460.994L807.873 461.641C800.832 463.195 793.514 464.015 786 464.015H763.556V470.015H786C793.951 470.015 801.704 469.147 809.166 467.5ZM204.127 472.389C211.168 470.835 218.486 470.015 226 470.015H248.444V464.015H226C218.048 464.015 210.296 464.883 202.834 466.53L199.904 467.177L201.198 473.036L204.127 472.389ZM318.444 464.015H273.556V470.015H318.444V464.015ZM388.444 464.015H343.556V470.015H388.444V464.015ZM458.444 464.015H413.556V470.015H458.444V464.015ZM528.444 464.015H483.556V470.015H528.444V464.015ZM598.444 464.015H553.556V470.015H598.444V464.015ZM668.444 464.015H623.556V470.015H668.444V464.015ZM738.444 464.015H693.556V470.015H738.444V464.015ZM171.729 485.82L174.257 484.206L171.029 479.148L168.5 480.762C155.343 489.162 144.146 500.358 135.747 513.516L134.133 516.044L139.19 519.273L140.805 516.744C148.734 504.322 159.307 493.75 171.729 485.82ZM127.374 549.143L128.021 546.213L122.162 544.92L121.515 547.849C119.868 555.311 119 563.064 119 571.015V593.32H125V571.015C125 563.502 125.82 556.183 127.374 549.143ZM125 662.816V618.207H119V662.816H125ZM125 732.312V687.703H119V732.312H125ZM125 801.808V757.199H119V801.808H125Z" fill="#FCFCFC"/>
<path d="M119 879H125V826.696H119V879Z" fill="#FCFCFC"/>
<path d="M119 961H125V908.696H119V961Z" fill="#FCFCFC"/>
<path d="M119 1042.3H125V990H119V1042.3Z" fill="#FCFCFC"/>
<rect y="561" width="217" height="197" fill="url(#paint0_linear_1006_6731)"/>
<rect x="82.5" y="606" width="72" height="72" rx="36" fill="white"/>
<rect x="83" y="606.5" width="71" height="71" rx="35.5" stroke="black" stroke-opacity="0.1"/>
<path d="M116.834 651.897C110.256 651.077 105.167 645.466 105.167 638.667C105.167 631.303 111.137 625.333 118.5 625.333C125.864 625.333 131.834 631.303 131.834 638.667C131.834 645.466 126.744 651.077 120.167 651.897V655.353C126.744 655.507 131.834 656.559 131.834 657.833C131.834 659.214 125.864 660.333 118.5 660.333C111.137 660.333 105.167 659.214 105.167 657.833C105.167 656.559 110.256 655.507 116.834 655.353V651.897ZM118.5 648.667C124.023 648.667 128.5 644.19 128.5 638.667C128.5 633.144 124.023 628.667 118.5 628.667C112.977 628.667 108.5 633.144 108.5 638.667C108.5 644.19 112.977 648.667 118.5 648.667ZM118.5 642C116.659 642 115.167 640.508 115.167 638.667C115.167 636.826 116.659 635.333 118.5 635.333C120.341 635.333 121.834 636.826 121.834 638.667C121.834 640.508 120.341 642 118.5 642Z" fill="#E44203"/>
<path d="M41.0039 711H37.1799V699.432H40.9399C44.3959 699.432 46.7319 701.768 46.7319 705.224C46.7319 708.664 44.4279 711 41.0039 711ZM40.8279 700.872H38.7479V709.544H40.8919C43.4679 709.544 45.0999 707.88 45.0999 705.224C45.0999 702.536 43.4679 700.872 40.8279 700.872ZM51.8468 711.192C49.5428 711.192 47.9588 709.528 47.9588 707.096C47.9588 704.648 49.5108 702.952 51.7828 702.952C54.0068 702.952 55.4628 704.488 55.4628 706.808V707.368L49.4148 707.384C49.5268 709.032 50.3908 709.944 51.8788 709.944C53.0468 709.944 53.8148 709.464 54.0708 708.568H55.4788C55.0948 710.248 53.7828 711.192 51.8468 711.192ZM51.7828 704.216C50.4708 704.216 49.6388 705 49.4468 706.376H53.9588C53.9588 705.08 53.1108 704.216 51.7828 704.216ZM57.1427 714.504V703.176H58.5027L58.6147 704.584C59.1427 703.512 60.1987 702.952 61.4467 702.952C63.6867 702.952 65.0787 704.632 65.0787 707.032C65.0787 709.416 63.7667 711.208 61.4467 711.208C60.1987 711.208 59.1587 710.68 58.6467 709.72V714.504H57.1427ZM58.6627 707.096C58.6627 708.696 59.5907 709.848 61.1267 709.848C62.6627 709.848 63.5747 708.696 63.5747 707.096C63.5747 705.48 62.6627 704.328 61.1267 704.328C59.5907 704.328 58.6627 705.464 58.6627 707.096ZM69.0244 711.192C67.3444 711.192 66.3524 710.248 66.3524 708.824C66.3524 707.384 67.4244 706.488 69.2644 706.344L71.7284 706.152V705.928C71.7284 704.616 70.9444 704.152 69.8884 704.152C68.6244 704.152 67.9044 704.712 67.9044 705.656H66.5924C66.5924 704.024 67.9364 702.952 69.9524 702.952C71.8884 702.952 73.2004 703.976 73.2004 706.088V711H71.9204L71.7604 709.736C71.3604 710.632 70.2884 711.192 69.0244 711.192ZM69.4564 710.024C70.8804 710.024 71.7444 709.096 71.7444 707.624V707.208L69.7444 707.368C68.4164 707.496 67.8724 708.008 67.8724 708.776C67.8724 709.608 68.4804 710.024 69.4564 710.024ZM79.7633 703.112V704.488H79.0913C77.6673 704.488 76.7873 705.352 76.7873 706.856V711H75.2833V703.192H76.6913L76.7873 704.376C77.1073 703.56 77.8913 703.016 78.9633 703.016C79.2353 703.016 79.4593 703.048 79.7633 703.112ZM83.6944 711H82.1904V704.44H80.6544V703.176H82.1904V700.728H83.6944V703.176H85.2304V704.44H83.6944V711ZM90.1232 703.176H91.2752V701.928C91.2752 700.008 92.3312 699.224 93.7552 699.224C94.0432 699.224 94.3792 699.24 94.6832 699.288V700.584H94.0112C93.0352 700.584 92.7792 701.08 92.7792 701.928V703.176H94.6352V704.44H92.7792V711H91.2752V704.44H90.1232V703.176ZM100.513 703.112V704.488H99.8413C98.4173 704.488 97.5373 705.352 97.5373 706.856V711H96.0333V703.192H97.4413L97.5373 704.376C97.8573 703.56 98.6413 703.016 99.7133 703.016C99.9853 703.016 100.209 703.048 100.513 703.112ZM101.131 707.08C101.131 704.664 102.859 702.968 105.211 702.968C107.547 702.968 109.275 704.664 109.275 707.08C109.275 709.496 107.547 711.192 105.211 711.192C102.859 711.192 101.131 709.496 101.131 707.08ZM102.651 707.08C102.651 708.712 103.691 709.848 105.211 709.848C106.715 709.848 107.771 708.712 107.771 707.08C107.771 705.448 106.715 704.312 105.211 704.312C103.691 704.312 102.651 705.448 102.651 707.08ZM112.444 711H110.94V703.176H112.284L112.428 704.2C112.828 703.464 113.66 702.952 114.764 702.952C115.98 702.952 116.844 703.56 117.244 704.536C117.612 703.56 118.556 702.952 119.772 702.952C121.564 702.952 122.652 704.072 122.652 705.88V711H121.18V706.248C121.18 705.016 120.492 704.312 119.436 704.312C118.3 704.312 117.548 705.112 117.548 706.36V711H116.06V706.232C116.06 705 115.388 704.328 114.332 704.328C113.196 704.328 112.444 705.112 112.444 706.36V711ZM128.695 702.552C128.695 700.568 130.295 699.224 132.679 699.224C134.887 699.224 136.311 700.456 136.439 702.456H134.855C134.775 701.304 133.959 700.632 132.663 700.632C131.207 700.632 130.263 701.368 130.263 702.504C130.263 703.432 130.791 703.992 131.879 704.248L133.783 704.696C135.671 705.128 136.631 706.152 136.631 707.784C136.631 709.864 135.015 711.192 132.551 711.192C130.199 711.192 128.631 709.96 128.535 707.976H130.135C130.167 709.08 131.095 709.784 132.551 709.784C134.087 709.784 135.063 709.064 135.063 707.912C135.063 707 134.567 706.424 133.463 706.168L131.559 705.736C129.671 705.304 128.695 704.216 128.695 702.552ZM141.722 711.192C139.418 711.192 137.834 709.528 137.834 707.096C137.834 704.648 139.386 702.952 141.658 702.952C143.882 702.952 145.338 704.488 145.338 706.808V707.368L139.29 707.384C139.402 709.032 140.266 709.944 141.754 709.944C142.922 709.944 143.69 709.464 143.946 708.568H145.354C144.97 710.248 143.658 711.192 141.722 711.192ZM141.658 704.216C140.346 704.216 139.514 705 139.322 706.376H143.834C143.834 705.08 142.986 704.216 141.658 704.216ZM148.522 711H147.018V703.176H148.362L148.506 704.2C148.906 703.464 149.738 702.952 150.842 702.952C152.058 702.952 152.922 703.56 153.322 704.536C153.69 703.56 154.634 702.952 155.85 702.952C157.642 702.952 158.73 704.072 158.73 705.88V711H157.258V706.248C157.258 705.016 156.57 704.312 155.514 704.312C154.378 704.312 153.626 705.112 153.626 706.36V711H152.138V706.232C152.138 705 151.466 704.328 150.41 704.328C149.274 704.328 148.522 705.112 148.522 706.36V711ZM163.103 711.192C161.423 711.192 160.431 710.248 160.431 708.824C160.431 707.384 161.503 706.488 163.343 706.344L165.807 706.152V705.928C165.807 704.616 165.023 704.152 163.967 704.152C162.703 704.152 161.983 704.712 161.983 705.656H160.671C160.671 704.024 162.015 702.952 164.031 702.952C165.967 702.952 167.279 703.976 167.279 706.088V711H165.999L165.839 709.736C165.439 710.632 164.367 711.192 163.103 711.192ZM163.535 710.024C164.959 710.024 165.823 709.096 165.823 707.624V707.208L163.823 707.368C162.495 707.496 161.951 708.008 161.951 708.776C161.951 709.608 162.559 710.024 163.535 710.024ZM173.841 703.112V704.488H173.169C171.745 704.488 170.865 705.352 170.865 706.856V711H169.361V703.192H170.769L170.865 704.376C171.185 703.56 171.969 703.016 173.041 703.016C173.313 703.016 173.537 703.048 173.841 703.112ZM177.228 711.192C175.548 711.192 174.556 710.248 174.556 708.824C174.556 707.384 175.628 706.488 177.468 706.344L179.932 706.152V705.928C179.932 704.616 179.148 704.152 178.092 704.152C176.828 704.152 176.108 704.712 176.108 705.656H174.796C174.796 704.024 176.14 702.952 178.156 702.952C180.092 702.952 181.404 703.976 181.404 706.088V711H180.124L179.964 709.736C179.564 710.632 178.492 711.192 177.228 711.192ZM177.66 710.024C179.084 710.024 179.948 709.096 179.948 707.624V707.208L177.948 707.368C176.62 707.496 176.076 708.008 176.076 708.776C176.076 709.608 176.684 710.024 177.66 710.024ZM184.99 711H183.486V703.176H184.846L185.006 704.376C185.502 703.48 186.494 702.952 187.598 702.952C189.662 702.952 190.606 704.216 190.606 706.216V711H189.102V706.552C189.102 704.968 188.366 704.328 187.214 704.328C185.806 704.328 184.99 705.336 184.99 706.856V711ZM192.194 706.888C192.194 704.68 193.618 702.952 195.89 702.952C197.154 702.952 198.13 703.528 198.626 704.504L198.738 703.176H200.082V710.68C200.082 713.144 198.562 714.712 196.162 714.712C194.034 714.712 192.578 713.512 192.29 711.528H193.794C193.986 712.68 194.85 713.352 196.162 713.352C197.634 713.352 198.594 712.392 198.594 710.904V709.336C198.082 710.248 197.058 710.792 195.826 710.792C193.602 710.792 192.194 709.08 192.194 706.888ZM193.698 706.856C193.698 708.328 194.61 709.48 196.082 709.48C197.602 709.48 198.53 708.392 198.53 706.856C198.53 705.352 197.634 704.264 196.098 704.264C194.594 704.264 193.698 705.416 193.698 706.856Z" fill="#161616" fill-opacity="0.6"/>
<path d="M91.4371 736.96H88.2171V742H85.6571V727.38H91.4371C94.3771 727.38 96.2771 729.3 96.2771 732.16C96.2771 734.98 94.3571 736.96 91.4371 736.96ZM90.9371 729.66H88.2171V734.68H90.8971C92.6571 734.68 93.5971 733.74 93.5971 732.14C93.5971 730.54 92.6371 729.66 90.9371 729.66ZM99.2905 730.14C98.4505 730.14 97.7905 729.48 97.7905 728.66C97.7905 727.84 98.4505 727.2 99.2905 727.2C100.091 727.2 100.751 727.84 100.751 728.66C100.751 729.48 100.091 730.14 99.2905 730.14ZM98.0705 742V732.12H100.511V742H98.0705ZM102.451 737.04C102.451 733.98 104.471 731.82 107.391 731.82C110.091 731.82 111.931 733.32 112.191 735.7H109.751C109.471 734.58 108.651 734 107.491 734C105.931 734 104.891 735.18 104.891 737.04C104.891 738.9 105.851 740.06 107.411 740.06C108.631 740.06 109.491 739.46 109.751 738.38H112.211C111.911 740.68 109.991 742.26 107.411 742.26C104.411 742.26 102.451 740.18 102.451 737.04ZM116.488 742H114.068V727.12H116.488V736.26L120.328 732.12H123.388L119.628 736.04L123.308 742H120.508L117.928 737.84L116.488 739.34V742ZM136.88 732.12H139.32V742H137.06L136.88 740.68C136.28 741.62 135 742.26 133.68 742.26C131.4 742.26 130.06 740.72 130.06 738.3V732.12H132.5V737.44C132.5 739.32 133.24 740.08 134.6 740.08C136.14 740.08 136.88 739.18 136.88 737.3V732.12ZM141.84 746.58V732.12H144.1L144.26 733.62C144.86 732.48 146.16 731.82 147.66 731.82C150.44 731.82 152.28 733.84 152.28 736.94C152.28 740.02 150.6 742.26 147.66 742.26C146.18 742.26 144.9 741.68 144.28 740.68V746.58H141.84ZM144.3 737.06C144.3 738.84 145.4 740.06 147.08 740.06C148.8 740.06 149.82 738.82 149.82 737.06C149.82 735.3 148.8 734.04 147.08 734.04C145.4 734.04 144.3 735.28 144.3 737.06Z" fill="#161616"/>
<rect x="764" width="217" height="197" fill="url(#paint1_linear_1006_6731)"/>
<path d="M819.949 20H818.317L822.541 8.432H824.285L828.525 20H826.877L825.837 17.12H820.973L819.949 20ZM823.213 10.928L821.453 15.76H825.373L823.597 10.928C823.517 10.704 823.437 10.432 823.405 10.256C823.373 10.416 823.293 10.688 823.213 10.928ZM834.287 12.112V13.488H833.615C832.191 13.488 831.311 14.352 831.311 15.856V20H829.807V12.192H831.215L831.311 13.376C831.631 12.56 832.415 12.016 833.487 12.016C833.759 12.016 833.983 12.048 834.287 12.112ZM840.177 12.112V13.488H839.505C838.081 13.488 837.201 14.352 837.201 15.856V20H835.697V12.192H837.105L837.201 13.376C837.521 12.56 838.305 12.016 839.377 12.016C839.649 12.016 839.873 12.048 840.177 12.112ZM842.324 10.32C841.78 10.32 841.332 9.872 841.332 9.328C841.332 8.768 841.78 8.336 842.324 8.336C842.868 8.336 843.316 8.768 843.316 9.328C843.316 9.872 842.868 10.32 842.324 10.32ZM841.588 20V12.176H843.092V20H841.588ZM847.468 20L844.316 12.176H845.916L847.628 16.544C847.9 17.28 848.124 17.936 848.252 18.416C848.38 17.904 848.636 17.232 848.908 16.544L850.652 12.176H852.22L848.956 20H847.468ZM856.433 20.192C854.129 20.192 852.545 18.528 852.545 16.096C852.545 13.648 854.097 11.952 856.369 11.952C858.593 11.952 860.049 13.488 860.049 15.808V16.368L854.001 16.384C854.113 18.032 854.977 18.944 856.465 18.944C857.633 18.944 858.401 18.464 858.657 17.568H860.065C859.681 19.248 858.369 20.192 856.433 20.192ZM856.369 13.216C855.057 13.216 854.225 14 854.033 15.376H858.545C858.545 14.08 857.697 13.216 856.369 13.216ZM864.865 20.192C862.593 20.192 861.217 18.496 861.217 16.112C861.217 13.712 862.609 11.952 864.929 11.952C866.129 11.952 867.137 12.48 867.665 13.44V8.224H869.153V20H867.809L867.681 18.576C867.169 19.648 866.113 20.192 864.865 20.192ZM865.169 18.832C866.705 18.832 867.649 17.696 867.649 16.064C867.649 14.464 866.705 13.312 865.169 13.312C863.633 13.312 862.737 14.464 862.737 16.064C862.737 17.68 863.633 18.832 865.169 18.832ZM877.985 20.192C876.305 20.192 875.313 19.248 875.313 17.824C875.313 16.384 876.385 15.488 878.225 15.344L880.689 15.152V14.928C880.689 13.616 879.905 13.152 878.849 13.152C877.585 13.152 876.865 13.712 876.865 14.656H875.553C875.553 13.024 876.897 11.952 878.913 11.952C880.849 11.952 882.161 12.976 882.161 15.088V20H880.881L880.721 18.736C880.321 19.632 879.249 20.192 877.985 20.192ZM878.417 19.024C879.841 19.024 880.705 18.096 880.705 16.624V16.208L878.705 16.368C877.377 16.496 876.833 17.008 876.833 17.776C876.833 18.608 877.441 19.024 878.417 19.024ZM886.327 20H884.823V13.44H883.287V12.176H884.823V9.728H886.327V12.176H887.863V13.44H886.327V20ZM893.844 20V8.432H898.26C900.516 8.432 901.892 9.584 901.892 11.488C901.892 12.816 901.316 13.712 900.164 14.192C901.444 14.608 902.1 15.536 902.1 16.912C902.1 18.832 900.708 20 898.42 20H893.844ZM898.164 9.824H895.412V13.536H898.26C899.556 13.536 900.292 12.832 900.292 11.632C900.292 10.48 899.524 9.824 898.164 9.824ZM898.388 14.896H895.412V18.608H898.388C899.732 18.608 900.484 17.92 900.484 16.72C900.484 15.568 899.716 14.896 898.388 14.896ZM906.095 20.192C904.415 20.192 903.423 19.248 903.423 17.824C903.423 16.384 904.495 15.488 906.335 15.344L908.799 15.152V14.928C908.799 13.616 908.015 13.152 906.959 13.152C905.695 13.152 904.975 13.712 904.975 14.656H903.663C903.663 13.024 905.007 11.952 907.023 11.952C908.959 11.952 910.271 12.976 910.271 15.088V20H908.991L908.831 18.736C908.431 19.632 907.359 20.192 906.095 20.192ZM906.527 19.024C907.951 19.024 908.815 18.096 908.815 16.624V16.208L906.815 16.368C905.487 16.496 904.943 17.008 904.943 17.776C904.943 18.608 905.551 19.024 906.527 19.024ZM913.858 20H912.354V12.176H913.714L913.874 13.376C914.37 12.48 915.362 11.952 916.466 11.952C918.53 11.952 919.474 13.216 919.474 15.216V20H917.97V15.552C917.97 13.968 917.234 13.328 916.082 13.328C914.674 13.328 913.858 14.336 913.858 15.856V20ZM920.649 23.504V22.272H921.657C922.377 22.272 922.953 22.16 923.321 21.168L923.593 20.416L920.441 12.176H922.025L924.297 18.48L926.617 12.176H928.169L924.473 21.76C923.945 23.104 923.161 23.664 921.961 23.664C921.465 23.664 921.049 23.6 920.649 23.504ZM934.777 12.176H936.265V20H934.921L934.761 18.816C934.313 19.632 933.273 20.192 932.121 20.192C930.297 20.192 929.273 18.96 929.273 17.04V12.176H930.777V16.544C930.777 18.224 931.497 18.864 932.649 18.864C934.025 18.864 934.777 17.984 934.777 16.304V12.176ZM939.951 20H938.447V12.176H939.791L939.935 13.2C940.335 12.464 941.167 11.952 942.271 11.952C943.487 11.952 944.351 12.56 944.751 13.536C945.119 12.56 946.063 11.952 947.279 11.952C949.071 11.952 950.159 13.072 950.159 14.88V20H948.687V15.248C948.687 14.016 947.999 13.312 946.943 13.312C945.807 13.312 945.055 14.112 945.055 15.36V20H943.567V15.232C943.567 14 942.895 13.328 941.839 13.328C940.703 13.328 939.951 14.112 939.951 15.36V20ZM954.532 20.192C952.852 20.192 951.86 19.248 951.86 17.824C951.86 16.384 952.932 15.488 954.772 15.344L957.236 15.152V14.928C957.236 13.616 956.452 13.152 955.396 13.152C954.132 13.152 953.412 13.712 953.412 14.656H952.1C952.1 13.024 953.444 11.952 955.46 11.952C957.396 11.952 958.708 12.976 958.708 15.088V20H957.428L957.268 18.736C956.868 19.632 955.796 20.192 954.532 20.192ZM954.964 19.024C956.388 19.024 957.252 18.096 957.252 16.624V16.208L955.252 16.368C953.924 16.496 953.38 17.008 953.38 17.776C953.38 18.608 953.988 19.024 954.964 19.024ZM960.151 17.728H961.591C961.591 18.528 962.199 19.008 963.191 19.008C964.247 19.008 964.855 18.576 964.855 17.856C964.855 17.328 964.599 17.008 963.783 16.8L962.407 16.48C961.015 16.144 960.359 15.456 960.359 14.304C960.359 12.864 961.575 11.952 963.303 11.952C965.015 11.952 966.135 12.912 966.167 14.4H964.727C964.695 13.616 964.167 13.12 963.255 13.12C962.311 13.12 961.783 13.536 961.783 14.256C961.783 14.784 962.167 15.136 962.935 15.328L964.311 15.664C965.639 15.984 966.295 16.592 966.295 17.76C966.295 19.248 965.015 20.192 963.159 20.192C961.319 20.192 960.151 19.216 960.151 17.728Z" fill="#161616" fill-opacity="0.6"/>
<path d="M860.816 51H855.556V36.38H860.676C864.996 36.38 867.976 39.36 867.976 43.72C867.976 48.02 865.056 51 860.816 51ZM860.436 38.74H858.116V48.64H860.576C863.496 48.64 865.276 46.76 865.276 43.72C865.276 40.62 863.456 38.74 860.436 38.74ZM876.2 41.08V43.34H875.3C873.54 43.34 872.44 44.28 872.44 46.2V51H870V41.14H872.3L872.44 42.58C872.86 41.6 873.8 40.94 875.12 40.94C875.46 40.94 875.8 40.98 876.2 41.08ZM876.94 46.04C876.94 42.96 879.16 40.84 882.22 40.84C885.28 40.84 887.5 42.96 887.5 46.04C887.5 49.12 885.28 51.24 882.22 51.24C879.16 51.24 876.94 49.12 876.94 46.04ZM879.38 46.04C879.38 47.84 880.54 49.06 882.22 49.06C883.9 49.06 885.06 47.84 885.06 46.04C885.06 44.24 883.9 43.02 882.22 43.02C880.54 43.02 879.38 44.24 879.38 46.04ZM889.434 55.58V41.12H891.694L891.854 42.62C892.454 41.48 893.754 40.82 895.254 40.82C898.034 40.82 899.874 42.84 899.874 45.94C899.874 49.02 898.194 51.26 895.254 51.26C893.774 51.26 892.494 50.68 891.874 49.68V55.58H889.434ZM891.894 46.06C891.894 47.84 892.994 49.06 894.674 49.06C896.394 49.06 897.414 47.82 897.414 46.06C897.414 44.3 896.394 43.04 894.674 43.04C892.994 43.04 891.894 44.28 891.894 46.06ZM906.627 46.04C906.627 42.96 908.847 40.84 911.907 40.84C914.967 40.84 917.187 42.96 917.187 46.04C917.187 49.12 914.967 51.24 911.907 51.24C908.847 51.24 906.627 49.12 906.627 46.04ZM909.067 46.04C909.067 47.84 910.227 49.06 911.907 49.06C913.587 49.06 914.747 47.84 914.747 46.04C914.747 44.24 913.587 43.02 911.907 43.02C910.227 43.02 909.067 44.24 909.067 46.04ZM918.102 41.12H919.522V39.92C919.522 37.24 920.922 36.12 923.062 36.12C923.442 36.12 923.902 36.14 924.322 36.22V38.3H923.462C922.222 38.3 921.942 38.94 921.942 39.92V41.12H925.982V39.92C925.982 37.24 927.382 36.12 929.522 36.12C929.922 36.12 930.362 36.14 930.782 36.22V38.3H929.942C928.702 38.3 928.402 38.94 928.402 39.92V41.12H930.762V43.16H928.402V51H925.982V43.16H921.942V51H919.522V43.16H918.102V41.12Z" fill="#161616"/>
<rect x="856.5" y="73" width="72" height="72" rx="36" fill="white"/>
<rect x="857" y="73.5" width="71" height="71" rx="35.5" stroke="black" stroke-opacity="0.1"/>
<path d="M890.834 118.897C884.256 118.077 879.167 112.466 879.167 105.667C879.167 98.303 885.137 92.3335 892.5 92.3335C899.864 92.3335 905.834 98.303 905.834 105.667C905.834 112.466 900.744 118.077 894.167 118.897V122.353C900.744 122.507 905.834 123.559 905.834 124.833C905.834 126.214 899.864 127.333 892.5 127.333C885.137 127.333 879.167 126.214 879.167 124.833C879.167 123.559 884.256 122.507 890.834 122.353V118.897ZM892.5 115.667C898.023 115.667 902.5 111.19 902.5 105.667C902.5 100.144 898.023 95.6668 892.5 95.6668C886.977 95.6668 882.5 100.144 882.5 105.667C882.5 111.19 886.977 115.667 892.5 115.667ZM892.5 109C890.659 109 889.167 107.508 889.167 105.667C889.167 103.826 890.659 102.333 892.5 102.333C894.341 102.333 895.834 103.826 895.834 105.667C895.834 107.508 894.341 109 892.5 109Z" fill="#1A9F00"/>
<g filter="url(#filter0_f_1006_6731)">
<path d="M387.938 501.772C393.364 496.503 402.326 485.141 404.502 479.037C407.227 472.416 396.619 471.625 395.067 471.549C393.514 471.474 297.155 472.895 284.591 473.683C272.026 474.471 254.05 503.893 248.457 512.31C243.898 519.171 249.718 519.345 250.929 519.597C252.141 519.849 326.389 519.879 348.26 519.11C364.823 518.527 377.288 512.113 387.938 501.772Z" fill="black" fill-opacity="0.2"/>
</g>
<path fill-rule="evenodd" clip-rule="evenodd" d="M312.99 491.12L318.953 483.423L318.955 483.425C318.992 483.375 319.03 483.326 319.069 483.277C322.656 478.762 331.781 480.067 339.45 486.191C347.118 492.316 350.426 500.941 346.838 505.455C346.801 505.502 346.763 505.548 346.725 505.594L340.943 513.067L331.984 506.033C330.122 505.14 328.25 503.972 326.457 502.541C324.803 501.22 323.352 499.783 322.13 498.296L312.99 491.12Z" fill="black"/>
<ellipse cx="10.4458" cy="17.7486" rx="10.4458" ry="17.7486" transform="matrix(-0.621874 0.782601 0.781669 0.62434 319.679 482.751)" fill="black"/>
<g filter="url(#filter1_i_1006_6731)">
<ellipse cx="7.83469" cy="13.3121" rx="7.83469" ry="13.3121" transform="matrix(-0.621874 0.782601 0.781669 0.62434 321.258 487.711)" fill="url(#paint2_linear_1006_6731)"/>
</g>
<g filter="url(#filter2_di_1006_6731)">
<path fill-rule="evenodd" clip-rule="evenodd" d="M323.278 493.636C324.431 493.77 325.671 494.119 326.928 494.672L326.723 499.248C326.501 499.158 326.281 499.084 326.066 499.027L323.278 493.636ZM329.378 505.431C329.517 505.385 329.647 505.326 329.766 505.254L335.52 508.952C335.492 508.99 335.464 509.027 335.435 509.063C334.67 510.025 333.502 510.564 332.105 510.703L329.378 505.431ZM331.059 510.735L328.372 505.54C328.062 505.52 327.732 505.458 327.394 505.355L327.191 509.868C328.541 510.4 329.86 510.694 331.059 510.735ZM324.931 498.887L322.182 493.573C320.471 493.582 319.032 494.127 318.14 495.249C317.891 495.563 317.695 495.909 317.55 496.28L323.233 499.933C323.29 499.79 323.365 499.657 323.462 499.535C323.79 499.122 324.311 498.91 324.931 498.887ZM322.739 507.251C323.882 508.165 325.077 508.906 326.265 509.466L326.466 504.98C326.139 504.815 325.812 504.615 325.492 504.382L322.532 507.084C322.601 507.14 322.669 507.196 322.739 507.251ZM327.646 499.718L327.853 495.114C328.86 495.636 329.867 496.286 330.836 497.061C331.064 497.243 331.286 497.428 331.501 497.616L328.516 500.342C328.474 500.307 328.431 500.273 328.389 500.238C328.146 500.045 327.897 499.871 327.646 499.718ZM321.813 506.462C320.505 505.273 319.446 503.97 318.678 502.662L324.005 502.917C324.221 503.209 324.475 503.496 324.761 503.77L321.813 506.462ZM329.201 500.996C329.575 501.404 329.878 501.835 330.098 502.262L335.362 502.513C334.655 501.069 333.582 499.602 332.198 498.259L329.201 500.996ZM335.781 503.479L330.457 503.225C330.563 503.705 330.545 504.155 330.388 504.532L335.985 508.13C336.53 506.829 336.43 505.194 335.781 503.479ZM318.161 501.692L323.427 501.943C323.281 501.619 323.184 501.299 323.139 500.995L317.297 497.24C317.095 498.564 317.408 500.112 318.161 501.692Z" fill="#4C4C4C"/>
</g>
<path fill-rule="evenodd" clip-rule="evenodd" d="M331.93 505.887C330.057 504.993 328.173 503.819 326.37 502.379C324.706 501.05 323.248 499.604 322.021 498.107L312.91 490.954L318.868 483.262C318.905 483.212 318.943 483.163 318.982 483.114C322.569 478.599 331.694 479.904 339.362 486.029C347.03 492.154 350.338 500.779 346.75 505.294C346.729 505.32 346.708 505.346 346.687 505.372L340.862 512.9L331.93 505.887Z" fill="black"/>
<path d="M320.363 510.04C328.025 516.16 337.145 517.461 340.732 512.947C344.32 508.432 341.017 499.81 333.355 493.69C325.693 487.571 316.151 485.945 312.563 490.46C308.976 494.975 312.701 503.92 320.363 510.04Z" fill="black"/>
<g filter="url(#filter3_i_1006_6731)">
<ellipse cx="7.34306" cy="12.8374" rx="7.34306" ry="12.8374" transform="matrix(-0.677438 0.735663 0.71674 0.697321 322.643 487.759)" fill="url(#paint3_linear_1006_6731)"/>
</g>
<g filter="url(#filter4_di_1006_6731)">
<path fill-rule="evenodd" clip-rule="evenodd" d="M324.802 507.485C327.2 509.275 329.757 510.104 331.671 509.774L327.304 505.586C327.167 505.53 327.029 505.467 326.89 505.398L324.802 507.485ZM322.683 505.592C320.26 503.026 318.964 500.025 319.139 497.755L323.504 501.941C323.772 502.51 324.154 503.09 324.639 503.637L322.683 505.592ZM328.398 499.879C326.858 498.513 325.071 497.972 323.993 498.494L320.462 495.107C322.626 493.454 326.863 494.626 330.357 497.92L328.398 499.879ZM332.251 500.038L330.16 502.129C330.653 503.112 330.807 504.074 330.556 504.789L334.089 508.177C335.228 506.232 334.462 502.998 332.251 500.038Z" fill="#474747"/>
</g>
<path fill-rule="evenodd" clip-rule="evenodd" d="M245.766 497.114L250.233 491.348L250.236 491.35C250.264 491.313 250.293 491.275 250.322 491.238C253.01 487.856 259.846 488.834 265.591 493.422C271.335 498.01 273.813 504.471 271.126 507.853C271.088 507.9 271.05 507.946 271.012 507.991L266.707 513.555L259.992 508.283C258.599 507.615 257.198 506.741 255.857 505.67C254.62 504.682 253.535 503.607 252.619 502.494L245.766 497.114Z" fill="black"/>
<ellipse cx="7.82533" cy="13.2962" rx="7.82533" ry="13.2962" transform="matrix(-0.621874 0.782601 0.781669 0.62434 250.772 490.847)" fill="black"/>
<g filter="url(#filter5_i_1006_6731)">
<ellipse cx="5.86927" cy="9.9726" rx="5.86927" ry="9.9726" transform="matrix(-0.621874 0.782601 0.781669 0.62434 251.955 494.562)" fill="url(#paint4_linear_1006_6731)"/>
</g>
<g filter="url(#filter6_di_1006_6731)">
<path fill-rule="evenodd" clip-rule="evenodd" d="M253.756 499.038C254.538 499.159 255.367 499.407 256.205 499.776L256.052 503.205C255.993 503.181 255.935 503.158 255.876 503.137L253.756 499.038ZM258.41 508.036L262.492 510.66C261.968 511.261 261.22 511.621 260.333 511.754L258.41 508.036ZM259.299 511.809L257.286 507.918C257.126 507.907 256.96 507.882 256.789 507.842L256.636 511.249C257.565 511.591 258.47 511.781 259.299 511.809ZM254.709 502.934L252.649 498.952C251.368 498.959 250.29 499.368 249.622 500.208C249.435 500.444 249.288 500.703 249.18 500.981L253.437 503.718C253.479 503.61 253.536 503.51 253.608 503.42C253.854 503.11 254.244 502.951 254.709 502.934ZM262.99 509.858L258.797 507.162C258.888 506.943 258.917 506.692 258.888 506.423L262.924 506.615C263.331 507.812 263.373 508.945 262.99 509.858ZM254.582 506.592C254.449 506.465 254.325 506.333 254.211 506.199L250.173 506.006C250.734 506.904 251.475 507.792 252.374 508.609L254.582 506.592ZM258.064 504.692C258.273 504.944 258.447 505.204 258.58 505.462L262.524 505.651C262.023 504.628 261.278 503.591 260.322 502.63L258.064 504.692ZM259.631 501.982L257.395 504.024C257.363 503.998 257.331 503.972 257.299 503.946C257.192 503.861 257.084 503.78 256.974 503.705L257.13 500.231C257.807 500.599 258.481 501.045 259.133 501.565C259.304 501.702 259.47 501.841 259.631 501.982ZM255.859 507.498L255.708 510.859C254.83 510.444 253.946 509.898 253.099 509.226L255.329 507.19C255.504 507.306 255.682 507.409 255.859 507.498ZM253.582 505.224L249.638 505.035C249.122 503.954 248.882 502.893 248.959 501.962L253.44 504.841C253.477 504.967 253.524 505.095 253.582 505.224Z" fill="#4C4C4C"/>
</g>
<path fill-rule="evenodd" clip-rule="evenodd" d="M245.7 496.994L250.166 491.228L250.168 491.229C250.196 491.192 250.224 491.155 250.253 491.118C252.941 487.736 259.777 488.713 265.522 493.302C271.266 497.89 273.744 504.351 271.057 507.733C271.028 507.769 270.999 507.804 270.97 507.839L266.64 513.435L259.927 508.165C258.533 507.496 257.131 506.621 255.788 505.549C254.55 504.56 253.463 503.484 252.548 502.371L245.7 496.994Z" fill="black"/>
<path d="M250.137 510.692C254.989 516.209 261.823 518.117 265.401 514.955C268.979 511.792 267.947 504.757 263.095 499.24C258.243 493.724 251.139 491.521 247.561 494.684C243.982 497.846 245.285 505.176 250.137 510.692Z" fill="black"/>
<g filter="url(#filter7_i_1006_6731)">
<ellipse cx="5.50079" cy="9.61729" rx="5.50079" ry="9.61729" transform="matrix(-0.765599 0.643413 0.622194 0.782846 254.131 494.877)" fill="url(#paint5_linear_1006_6731)"/>
</g>
<g filter="url(#filter8_di_1006_6731)">
<path fill-rule="evenodd" clip-rule="evenodd" d="M254.392 510.224C255.508 511.172 256.69 511.791 257.762 512.009L255.581 509.305L254.392 510.224ZM252.462 508.129C251.203 506.399 250.52 504.527 250.489 502.991L253.8 507.097L252.462 508.129ZM257.256 504.428C256.24 503.265 254.962 502.693 254.111 502.981L251.811 500.129C253.576 499.105 256.613 500.38 258.897 503.161L257.256 504.428ZM260.437 505.556L258.54 507.021C258.609 507.508 258.562 507.948 258.391 508.287L260.691 511.139C261.633 509.921 261.5 507.756 260.437 505.556Z" fill="#474747"/>
</g>
<g filter="url(#filter9_ii_1006_6731)">
<path d="M244.667 506.539C245.499 507.883 246.957 508.436 248.283 508.597C248.082 508.034 247.688 507.938 246.165 503.678C244.261 498.351 247.416 494.955 249.797 494.316C252.504 493.591 255.722 494.475 258.767 497.159C261.26 499.355 262.692 500.561 266.793 506.531C268.18 507.134 317.016 506.802 316.659 506.417C315.724 505.41 312.84 499.853 312.607 496.536C312.151 490.021 316.001 488.674 318.082 487.971C320.287 487.226 326.327 487.264 331.389 491.007C339.417 496.944 341.242 502.854 343.685 505.195C344.487 505.964 363.089 503.812 369.339 502.339C385.303 499.308 397.571 475.154 399.849 470.527C402.126 465.9 398.288 457.744 393.151 449.141C390.474 443.944 387.971 441.827 386.748 441.41C380.852 439.397 368.36 437.622 361.013 437.53C338.805 429.386 336.921 427.926 330.835 428.077C318.498 428.383 269.924 432.839 261.098 437.404C255.884 440.102 240.592 455.531 237.589 461.877C235.187 466.955 234.873 475.661 235.134 481.036C236.233 484.111 240.204 493.677 239.848 494.976C239.404 496.6 243.628 504.86 244.667 506.539Z" fill="url(#paint6_linear_1006_6731)"/>
</g>
<mask id="mask0_1006_6731" style="mask-type:alpha" maskUnits="userSpaceOnUse" x="235" y="428" width="166" height="81">
<path d="M244.67 506.538C245.501 507.882 246.959 508.435 248.286 508.596C248.084 508.033 247.69 507.937 246.167 503.677C244.264 498.35 247.418 494.954 249.8 494.315C252.507 493.59 255.724 494.474 258.77 497.158C261.262 499.354 262.695 500.56 266.795 506.53C268.182 507.133 317.018 506.801 316.661 506.416C315.727 505.409 312.842 499.852 312.61 496.535C312.153 490.02 316.003 488.673 318.084 487.97C320.29 487.225 326.329 487.263 331.392 491.006C339.42 496.943 341.244 502.853 343.687 505.194C344.489 505.963 363.091 503.811 369.341 502.338C385.305 499.307 397.574 475.153 399.851 470.526C402.129 465.899 398.29 457.743 393.154 449.139C390.477 443.943 387.974 441.826 386.751 441.409C380.854 439.396 368.363 437.621 361.015 437.529C338.807 429.385 336.517 428.093 327.664 428.313C315.327 428.619 269.926 432.838 261.101 437.403C255.886 440.101 240.595 455.53 237.592 461.876C235.189 466.954 234.875 475.66 235.137 481.035C236.235 484.11 240.206 493.676 239.851 494.975C239.406 496.599 243.63 504.859 244.67 506.538Z" fill="url(#paint7_linear_1006_6731)"/>
</mask>
<g mask="url(#mask0_1006_6731)">
<g filter="url(#filter10_dii_1006_6731)">
<path d="M367.806 475.023C364.787 476.87 359.748 480.205 352.944 480.912C351.483 481.063 350.383 484.057 351.608 484.868C353.098 485.854 354.509 486.604 355.487 486.608C358.5 486.619 366.497 485.432 372.422 480.902C372.474 480.863 372.527 480.825 372.588 480.803C373.362 480.513 375.777 480.952 377.619 480.75C380.448 480.159 388.234 468.678 390.165 465.724C394.242 459.486 394.976 456.08 394.955 455.289C394.924 454.053 393.545 452.179 393.311 451.493C393.134 450.974 393.046 449.77 393.014 449.215C393.003 449.023 392.954 448.837 392.863 448.668C392.486 447.969 391.378 445.983 390.169 444.508C390.108 444.433 390.054 444.352 390.009 444.266C388.28 441.011 385.752 439.517 386.642 441.236C387.867 443.604 388.73 446.758 387.76 449.03L387.751 449.051C387.714 449.137 387.68 449.218 387.634 449.3C386.574 451.212 372.652 472.058 367.806 475.023Z" fill="#141414"/>
</g>
<g filter="url(#filter11_dii_1006_6731)">
<path d="M367.809 475.023C364.79 476.87 359.751 480.204 352.946 480.911C351.484 481.062 350.384 484.056 351.61 484.867C353.1 485.853 354.511 486.602 355.489 486.606C358.502 486.618 366.5 485.431 372.426 480.902C372.477 480.862 372.531 480.825 372.592 480.802C373.365 480.512 375.78 480.952 377.623 480.75C380.452 480.158 388.238 468.679 390.17 465.724C394.247 459.487 394.981 456.081 394.96 455.29C394.929 454.055 393.55 452.181 393.316 451.495C393.139 450.975 393.051 449.772 393.019 449.216C393.008 449.025 392.959 448.839 392.868 448.67C392.491 447.971 391.382 445.985 390.174 444.51C390.113 444.435 390.059 444.354 390.013 444.268C388.284 441.013 385.756 439.52 386.646 441.238C387.871 443.607 388.734 446.76 387.764 449.032L387.755 449.053C387.719 449.138 387.684 449.22 387.638 449.302C386.578 451.213 372.656 472.058 367.809 475.023Z" fill="#141414"/>
</g>
<mask id="mask1_1006_6731" style="mask-type:alpha" maskUnits="userSpaceOnUse" x="351" y="440" width="45" height="47">
<path d="M367.809 475.023C364.79 476.87 359.751 480.204 352.946 480.911C351.484 481.062 350.384 484.056 351.61 484.867C353.1 485.853 354.511 486.602 355.489 486.606C358.502 486.618 366.5 485.431 372.426 480.902C372.477 480.862 372.531 480.825 372.592 480.802C373.365 480.512 375.78 480.952 377.623 480.75C380.452 480.158 388.238 468.679 390.17 465.724C394.247 459.487 395.138 455.768 395.117 454.977C395.086 453.741 393.491 452.066 393.257 451.38C393.084 450.873 393.028 449.777 393.011 449.238C393.005 449.033 392.955 448.832 392.858 448.652C392.472 447.936 391.372 445.972 390.174 444.51C390.113 444.435 390.059 444.354 390.013 444.268C388.284 441.013 385.756 439.52 386.646 441.238C387.871 443.607 388.734 446.76 387.764 449.032L387.755 449.053C387.719 449.138 387.684 449.22 387.638 449.302C386.578 451.213 372.656 472.058 367.809 475.023Z" fill="#211F1F"/>
</mask>
<g mask="url(#mask1_1006_6731)">
<g filter="url(#filter12_dii_1006_6731)">
<path d="M367.809 475.023C364.79 476.87 359.751 480.204 352.946 480.911C351.484 481.062 350.384 484.056 351.61 484.867C353.1 485.853 354.511 486.602 355.489 486.606C358.502 486.618 366.5 485.431 372.426 480.902C372.477 480.862 372.531 480.825 372.592 480.802C373.365 480.512 375.78 480.952 377.623 480.75C380.452 480.158 388.238 468.679 390.17 465.724C394.247 459.487 394.902 456.209 394.881 455.418C394.85 454.183 393.388 452.148 393.154 451.462C392.984 450.963 392.982 449.848 392.993 449.277C392.998 449.047 392.949 448.82 392.84 448.618C392.438 447.876 391.354 445.95 390.174 444.51C390.113 444.435 390.059 444.354 390.013 444.268C388.284 441.013 385.756 439.52 386.646 441.238C387.871 443.607 388.734 446.76 387.764 449.032L387.755 449.053C387.719 449.138 387.684 449.22 387.638 449.302C386.578 451.213 372.656 472.058 367.809 475.023Z" fill="#141414"/>
</g>
<g filter="url(#filter13_d_1006_6731)">
<path d="M387.334 443.208C387.512 443.33 387.709 443.481 387.906 443.662C388.541 444.242 389.154 445.103 389.203 446.297C389.216 446.62 389.127 447.027 388.953 447.319C388.785 447.601 388.614 447.674 388.434 447.647C388.173 447.607 387.879 447.631 387.618 447.671C387.348 447.712 387.07 447.776 386.824 447.842C386.805 447.847 386.787 447.852 386.768 447.857L387.334 443.208Z" stroke="white" stroke-opacity="0.5" stroke-width="1.10078"/>
</g>
<g filter="url(#filter14_d_1006_6731)">
<path d="M367.664 473.613L367.666 473.614L367.666 473.614L367.665 473.613C367.664 473.613 367.664 473.613 367.664 473.613ZM367.953 473.895C367.995 473.942 368.04 473.993 368.085 474.05C368.327 474.349 368.584 474.763 368.702 475.258C368.817 475.739 368.807 476.322 368.479 477C368.145 477.69 367.463 478.514 366.168 479.42C365.412 479.95 364.272 480.535 362.985 480.919C361.697 481.303 360.308 481.471 359.032 481.218C358.36 481.085 357.345 480.622 356.443 480.153C356.265 480.06 356.095 479.969 355.937 479.882L367.953 473.895Z" stroke="white" stroke-opacity="0.5" stroke-width="1.32093"/>
</g>
</g>
<g filter="url(#filter15_ddi_1006_6731)">
<path d="M330.453 473.945C326.555 474.276 317.272 465.493 309.457 460.076C308.064 459.11 307.755 457.135 308.863 455.852L331.795 429.297C332.274 428.743 332.954 428.436 333.674 428.569C335.747 428.951 341.196 430.381 354.115 435.698C358.633 437.558 359.259 437.756 361.458 438.568C361.785 438.689 361.6 440.163 361.181 441.143C359.457 445.175 340.483 473.092 330.453 473.945Z" fill="url(#paint8_linear_1006_6731)"/>
</g>
<g filter="url(#filter16_di_1006_6731)">
<path d="M302.986 461.777C297.068 461.658 284.536 462.059 278.507 462.273C276.782 462.334 275.583 463.991 276.082 465.644C277.381 469.944 279.645 476.995 280.543 477.02C305.052 477.709 313.096 477.522 314.339 477.484C316.427 477.422 321.742 477.895 319.965 476.196C317.188 473.541 307.053 461.858 302.986 461.777Z" fill="url(#paint9_linear_1006_6731)"/>
</g>
<g filter="url(#filter17_f_1006_6731)">
<path d="M348.279 479.111C339.016 479.786 332.491 477.794 325.873 476.336C341.253 472.902 373.651 466.087 373.529 466.885C373.376 467.883 371.851 469.815 365.505 473.93C359.257 477.982 349.339 479.033 348.279 479.111Z" fill="url(#paint10_linear_1006_6731)" fill-opacity="0.21"/>
</g>
<path d="M352.546 454.244L316.974 446.115C315.17 448.268 309.461 455.049 308.601 456.002C307.488 457.236 307.126 457.986 307.126 457.986C306.998 458.388 306.671 458.223 307.549 458.805C309.128 459.851 311.558 461.676 315.106 464.39C321.368 469.18 327.773 474.608 330.745 474.037C334.687 473.281 339.529 469.054 343.195 465.308C346.473 461.96 350.231 456.952 352.546 454.244Z" fill="#C4C4C4" fill-opacity="0.2"/>
<g filter="url(#filter18_di_1006_6731)">
<path d="M289.683 483.679C289.569 483.458 289.339 483.322 289.09 483.328L285.602 483.414C285.123 483.426 284.822 483.935 285.043 484.362C285.157 484.584 285.389 484.721 285.639 484.714L289.127 484.623C289.604 484.61 289.903 484.103 289.683 483.679Z" fill="#323232"/>
</g>
<g filter="url(#filter19_di_1006_6731)">
<path d="M273.947 484.036C273.833 483.815 273.602 483.678 273.354 483.685L269.866 483.77C269.386 483.782 269.086 484.292 269.306 484.718C269.421 484.94 269.653 485.077 269.903 485.071L273.39 484.979C273.868 484.967 274.166 484.46 273.947 484.036Z" fill="#323232"/>
</g>
<g filter="url(#filter20_di_1006_6731)">
<path d="M243.252 463.143L268.109 462.618C269.413 462.591 270.551 463.506 270.859 464.772C271.475 467.302 272.7 471.733 274.711 476.579C275.076 477.457 249.107 478.032 245.73 477.339C242.543 476.685 240.935 470.249 240.828 465.527C240.797 464.189 241.914 463.171 243.252 463.143Z" fill="url(#paint11_linear_1006_6731)"/>
</g>
<g filter="url(#filter21_di_1006_6731)">
<path d="M238.605 468.874C238.866 464.345 238.426 462.981 237.009 463.455C235.762 465.304 234.307 475.023 235.106 478.698C235.258 479.395 236.454 478.513 237.36 476.765C238.267 475.018 238.279 474.535 238.605 468.874Z" fill="url(#paint12_linear_1006_6731)"/>
</g>
<g filter="url(#filter22_f_1006_6731)">
<path d="M247.13 488.866L246.652 488.87C246.811 488.865 246.97 488.864 247.13 488.866L314.685 488.412C313.555 489.748 310.422 494.537 313.563 500.609L265.273 501.076C264.283 498.935 255.221 489.008 247.13 488.866Z" fill="url(#paint13_linear_1006_6731)"/>
</g>
</g>
<defs>
<filter id="filter0_f_1006_6731" x="238.506" y="463.313" width="174.674" height="64.6762" filterUnits="userSpaceOnUse" color-interpolation-filters="sRGB">
<feFlood flood-opacity="0" result="BackgroundImageFix"/>
<feBlend mode="normal" in="SourceGraphic" in2="BackgroundImageFix" result="shape"/>
<feGaussianBlur stdDeviation="4.1165" result="effect1_foregroundBlur_1006_6731"/>
</filter>
<filter id="filter1_i_1006_6731" x="315.299" y="491.825" width="22.9854" height="20.6577" filterUnits="userSpaceOnUse" color-interpolation-filters="sRGB">
<feFlood flood-opacity="0" result="BackgroundImageFix"/>
<feBlend mode="normal" in="SourceGraphic" in2="BackgroundImageFix" result="shape"/>
<feColorMatrix in="SourceAlpha" type="matrix" values="0 0 0 0 0 0 0 0 0 0 0 0 0 0 0 0 0 0 127 0" result="hardAlpha"/>
<feMorphology radius="0.472123" operator="erode" in="SourceAlpha" result="effect1_innerShadow_1006_6731"/>
<feOffset/>
<feGaussianBlur stdDeviation="0.236061"/>
<feComposite in2="hardAlpha" operator="arithmetic" k2="-1" k3="1"/>
<feColorMatrix type="matrix" values="0 0 0 0 0 0 0 0 0 0 0 0 0 0 0 0 0 0 0.25 0"/>
<feBlend mode="normal" in2="shape" result="effect1_innerShadow_1006_6731"/>
</filter>
<filter id="filter2_di_1006_6731" x="315.821" y="493.478" width="20.8002" height="18.2008" filterUnits="userSpaceOnUse" color-interpolation-filters="sRGB">
<feFlood flood-opacity="0" result="BackgroundImageFix"/>
<feColorMatrix in="SourceAlpha" type="matrix" values="0 0 0 0 0 0 0 0 0 0 0 0 0 0 0 0 0 0 127 0" result="hardAlpha"/>
<feOffset dy="0.188849"/>
<feGaussianBlur stdDeviation="0.141637"/>
<feColorMatrix type="matrix" values="0 0 0 0 1 0 0 0 0 1 0 0 0 0 1 0 0 0 0.41 0"/>
<feBlend mode="normal" in2="BackgroundImageFix" result="effect1_dropShadow_1006_6731"/>
<feBlend mode="normal" in="SourceGraphic" in2="effect1_dropShadow_1006_6731" result="shape"/>
<feColorMatrix in="SourceAlpha" type="matrix" values="0 0 0 0 0 0 0 0 0 0 0 0 0 0 0 0 0 0 127 0" result="hardAlpha"/>
<feOffset dx="-1.41637" dy="0.944246"/>
<feGaussianBlur stdDeviation="0.708184"/>
<feComposite in2="hardAlpha" operator="arithmetic" k2="-1" k3="1"/>
<feColorMatrix type="matrix" values="0 0 0 0 0 0 0 0 0 0 0 0 0 0 0 0 0 0 0.25 0"/>
<feBlend mode="normal" in2="shape" result="effect2_innerShadow_1006_6731"/>
</filter>
<filter id="filter3_i_1006_6731" x="316.407" y="491.656" width="20.9238" height="20.9141" filterUnits="userSpaceOnUse" color-interpolation-filters="sRGB">
<feFlood flood-opacity="0" result="BackgroundImageFix"/>
<feBlend mode="normal" in="SourceGraphic" in2="BackgroundImageFix" result="shape"/>
<feColorMatrix in="SourceAlpha" type="matrix" values="0 0 0 0 0 0 0 0 0 0 0 0 0 0 0 0 0 0 127 0" result="hardAlpha"/>
<feMorphology radius="0.346644" operator="erode" in="SourceAlpha" result="effect1_innerShadow_1006_6731"/>
<feOffset/>
<feGaussianBlur stdDeviation="0.173322"/>
<feComposite in2="hardAlpha" operator="arithmetic" k2="-1" k3="1"/>
<feColorMatrix type="matrix" values="0 0 0 0 0 0 0 0 0 0 0 0 0 0 0 0 0 0 0.25 0"/>
<feBlend mode="normal" in2="shape" result="effect1_innerShadow_1006_6731"/>
</filter>
<filter id="filter4_di_1006_6731" x="317.707" y="494.269" width="17.1889" height="16.5206" filterUnits="userSpaceOnUse" color-interpolation-filters="sRGB">
<feFlood flood-opacity="0" result="BackgroundImageFix"/>
<feColorMatrix in="SourceAlpha" type="matrix" values="0 0 0 0 0 0 0 0 0 0 0 0 0 0 0 0 0 0 127 0" result="hardAlpha"/>
<feOffset dy="0.188849"/>
<feGaussianBlur stdDeviation="0.141637"/>
<feColorMatrix type="matrix" values="0 0 0 0 1 0 0 0 0 1 0 0 0 0 1 0 0 0 0.41 0"/>
<feBlend mode="normal" in2="BackgroundImageFix" result="effect1_dropShadow_1006_6731"/>
<feBlend mode="normal" in="SourceGraphic" in2="effect1_dropShadow_1006_6731" result="shape"/>
<feColorMatrix in="SourceAlpha" type="matrix" values="0 0 0 0 0 0 0 0 0 0 0 0 0 0 0 0 0 0 127 0" result="hardAlpha"/>
<feOffset dx="-1.41637" dy="0.944246"/>
<feGaussianBlur stdDeviation="0.708184"/>
<feComposite in2="hardAlpha" operator="arithmetic" k2="-1" k3="1"/>
<feColorMatrix type="matrix" values="0 0 0 0 0 0 0 0 0 0 0 0 0 0 0 0 0 0 0.25 0"/>
<feBlend mode="normal" in2="shape" result="effect2_innerShadow_1006_6731"/>
</filter>
<filter id="filter5_i_1006_6731" x="247.491" y="497.644" width="17.2188" height="15.4756" filterUnits="userSpaceOnUse" color-interpolation-filters="sRGB">
<feFlood flood-opacity="0" result="BackgroundImageFix"/>
<feBlend mode="normal" in="SourceGraphic" in2="BackgroundImageFix" result="shape"/>
<feColorMatrix in="SourceAlpha" type="matrix" values="0 0 0 0 0 0 0 0 0 0 0 0 0 0 0 0 0 0 127 0" result="hardAlpha"/>
<feMorphology radius="0.472123" operator="erode" in="SourceAlpha" result="effect1_innerShadow_1006_6731"/>
<feOffset/>
<feGaussianBlur stdDeviation="0.236061"/>
<feComposite in2="hardAlpha" operator="arithmetic" k2="-1" k3="1"/>
<feColorMatrix type="matrix" values="0 0 0 0 0 0 0 0 0 0 0 0 0 0 0 0 0 0 0.25 0"/>
<feBlend mode="normal" in2="shape" result="effect1_innerShadow_1006_6731"/>
</filter>
<filter id="filter6_di_1006_6731" x="247.529" y="498.858" width="16.0092" height="13.8954" filterUnits="userSpaceOnUse" color-interpolation-filters="sRGB">
<feFlood flood-opacity="0" result="BackgroundImageFix"/>
<feColorMatrix in="SourceAlpha" type="matrix" values="0 0 0 0 0 0 0 0 0 0 0 0 0 0 0 0 0 0 127 0" result="hardAlpha"/>
<feOffset dy="0.188849"/>
<feGaussianBlur stdDeviation="0.141637"/>
<feColorMatrix type="matrix" values="0 0 0 0 1 0 0 0 0 1 0 0 0 0 1 0 0 0 0.41 0"/>
<feBlend mode="normal" in2="BackgroundImageFix" result="effect1_dropShadow_1006_6731"/>
<feBlend mode="normal" in="SourceGraphic" in2="effect1_dropShadow_1006_6731" result="shape"/>
<feColorMatrix in="SourceAlpha" type="matrix" values="0 0 0 0 0 0 0 0 0 0 0 0 0 0 0 0 0 0 127 0" result="hardAlpha"/>
<feOffset dx="-1.41637" dy="0.944246"/>
<feGaussianBlur stdDeviation="0.708184"/>
<feComposite in2="hardAlpha" operator="arithmetic" k2="-1" k3="1"/>
<feColorMatrix type="matrix" values="0 0 0 0 0 0 0 0 0 0 0 0 0 0 0 0 0 0 0.25 0"/>
<feBlend mode="normal" in2="shape" result="effect2_innerShadow_1006_6731"/>
</filter>
<filter id="filter7_i_1006_6731" x="248.585" y="497.624" width="14.6357" height="16.6426" filterUnits="userSpaceOnUse" color-interpolation-filters="sRGB">
<feFlood flood-opacity="0" result="BackgroundImageFix"/>
<feBlend mode="normal" in="SourceGraphic" in2="BackgroundImageFix" result="shape"/>
<feColorMatrix in="SourceAlpha" type="matrix" values="0 0 0 0 0 0 0 0 0 0 0 0 0 0 0 0 0 0 127 0" result="hardAlpha"/>
<feMorphology radius="0.346643" operator="erode" in="SourceAlpha" result="effect1_innerShadow_1006_6731"/>
<feOffset/>
<feGaussianBlur stdDeviation="0.173322"/>
<feComposite in2="hardAlpha" operator="arithmetic" k2="-1" k3="1"/>
<feColorMatrix type="matrix" values="0 0 0 0 0 0 0 0 0 0 0 0 0 0 0 0 0 0 0.25 0"/>
<feBlend mode="normal" in2="shape" result="effect1_innerShadow_1006_6731"/>
</filter>
<filter id="filter8_di_1006_6731" x="249.073" y="499.683" width="12.5336" height="13.2701" filterUnits="userSpaceOnUse" color-interpolation-filters="sRGB">
<feFlood flood-opacity="0" result="BackgroundImageFix"/>
<feColorMatrix in="SourceAlpha" type="matrix" values="0 0 0 0 0 0 0 0 0 0 0 0 0 0 0 0 0 0 127 0" result="hardAlpha"/>
<feOffset dy="0.188849"/>
<feGaussianBlur stdDeviation="0.141637"/>
<feColorMatrix type="matrix" values="0 0 0 0 1 0 0 0 0 1 0 0 0 0 1 0 0 0 0.41 0"/>
<feBlend mode="normal" in2="BackgroundImageFix" result="effect1_dropShadow_1006_6731"/>
<feBlend mode="normal" in="SourceGraphic" in2="effect1_dropShadow_1006_6731" result="shape"/>
<feColorMatrix in="SourceAlpha" type="matrix" values="0 0 0 0 0 0 0 0 0 0 0 0 0 0 0 0 0 0 127 0" result="hardAlpha"/>
<feOffset dx="-1.41637" dy="0.944246"/>
<feGaussianBlur stdDeviation="0.708184"/>
<feComposite in2="hardAlpha" operator="arithmetic" k2="-1" k3="1"/>
<feColorMatrix type="matrix" values="0 0 0 0 0 0 0 0 0 0 0 0 0 0 0 0 0 0 0.25 0"/>
<feBlend mode="normal" in2="shape" result="effect2_innerShadow_1006_6731"/>
</filter>
<filter id="filter9_ii_1006_6731" x="235.058" y="424.542" width="168.106" height="84.0546" filterUnits="userSpaceOnUse" color-interpolation-filters="sRGB">
<feFlood flood-opacity="0" result="BackgroundImageFix"/>
<feBlend mode="normal" in="SourceGraphic" in2="BackgroundImageFix" result="shape"/>
<feColorMatrix in="SourceAlpha" type="matrix" values="0 0 0 0 0 0 0 0 0 0 0 0 0 0 0 0 0 0 127 0" result="hardAlpha"/>
<feOffset dx="2.6436" dy="-3.5248"/>
<feGaussianBlur stdDeviation="10.5744"/>
<feComposite in2="hardAlpha" operator="arithmetic" k2="-1" k3="1"/>
<feColorMatrix type="matrix" values="0 0 0 0 0 0 0 0 0 0 0 0 0 0 0 0 0 0 0.07 0"/>
<feBlend mode="normal" in2="shape" result="effect1_innerShadow_1006_6731"/>
<feColorMatrix in="SourceAlpha" type="matrix" values="0 0 0 0 0 0 0 0 0 0 0 0 0 0 0 0 0 0 127 0" result="hardAlpha"/>
<feOffset dy="-0.440599"/>
<feGaussianBlur stdDeviation="0.881199"/>
<feComposite in2="hardAlpha" operator="arithmetic" k2="-1" k3="1"/>
<feColorMatrix type="matrix" values="0 0 0 0 0 0 0 0 0 0 0 0 0 0 0 0 0 0 0.25 0"/>
<feBlend mode="normal" in2="effect1_innerShadow_1006_6731" result="effect2_innerShadow_1006_6731"/>
</filter>
<filter id="filter10_dii_1006_6731" x="349.669" y="439.434" width="46.6985" height="48.9148" filterUnits="userSpaceOnUse" color-interpolation-filters="sRGB">
<feFlood flood-opacity="0" result="BackgroundImageFix"/>
<feColorMatrix in="SourceAlpha" type="matrix" values="0 0 0 0 0 0 0 0 0 0 0 0 0 0 0 0 0 0 127 0" result="hardAlpha"/>
<feOffset dy="0.329354"/>
<feGaussianBlur stdDeviation="0.705627"/>
<feColorMatrix type="matrix" values="0 0 0 0 0 0 0 0 0 0 0 0 0 0 0 0 0 0 0.63 0"/>
<feBlend mode="normal" in2="BackgroundImageFix" result="effect1_dropShadow_1006_6731"/>
<feBlend mode="normal" in="SourceGraphic" in2="effect1_dropShadow_1006_6731" result="shape"/>
<feColorMatrix in="SourceAlpha" type="matrix" values="0 0 0 0 0 0 0 0 0 0 0 0 0 0 0 0 0 0 127 0" result="hardAlpha"/>
<feOffset dy="0.329354"/>
<feGaussianBlur stdDeviation="0.329354"/>
<feComposite in2="hardAlpha" operator="arithmetic" k2="-1" k3="1"/>
<feColorMatrix type="matrix" values="0 0 0 0 0 0 0 0 0 0 0 0 0 0 0 0 0 0 0.25 0"/>
<feBlend mode="normal" in2="shape" result="effect2_innerShadow_1006_6731"/>
<feColorMatrix in="SourceAlpha" type="matrix" values="0 0 0 0 0 0 0 0 0 0 0 0 0 0 0 0 0 0 127 0" result="hardAlpha"/>
<feOffset dy="-0.329354"/>
<feGaussianBlur stdDeviation="0.329354"/>
<feComposite in2="hardAlpha" operator="arithmetic" k2="-1" k3="1"/>
<feColorMatrix type="matrix" values="0 0 0 0 0 0 0 0 0 0 0 0 0 0 0 0 0 0 0.25 0"/>
<feBlend mode="normal" in2="effect2_innerShadow_1006_6731" result="effect3_innerShadow_1006_6731"/>
</filter>
<filter id="filter11_dii_1006_6731" x="349.671" y="439.436" width="46.7014" height="48.9106" filterUnits="userSpaceOnUse" color-interpolation-filters="sRGB">
<feFlood flood-opacity="0" result="BackgroundImageFix"/>
<feColorMatrix in="SourceAlpha" type="matrix" values="0 0 0 0 0 0 0 0 0 0 0 0 0 0 0 0 0 0 127 0" result="hardAlpha"/>
<feOffset dy="0.329354"/>
<feGaussianBlur stdDeviation="0.705627"/>
<feColorMatrix type="matrix" values="0 0 0 0 0 0 0 0 0 0 0 0 0 0 0 0 0 0 0.63 0"/>
<feBlend mode="normal" in2="BackgroundImageFix" result="effect1_dropShadow_1006_6731"/>
<feBlend mode="normal" in="SourceGraphic" in2="effect1_dropShadow_1006_6731" result="shape"/>
<feColorMatrix in="SourceAlpha" type="matrix" values="0 0 0 0 0 0 0 0 0 0 0 0 0 0 0 0 0 0 127 0" result="hardAlpha"/>
<feOffset dy="0.329354"/>
<feGaussianBlur stdDeviation="0.329354"/>
<feComposite in2="hardAlpha" operator="arithmetic" k2="-1" k3="1"/>
<feColorMatrix type="matrix" values="0 0 0 0 0 0 0 0 0 0 0 0 0 0 0 0 0 0 0.25 0"/>
<feBlend mode="normal" in2="shape" result="effect2_innerShadow_1006_6731"/>
<feColorMatrix in="SourceAlpha" type="matrix" values="0 0 0 0 0 0 0 0 0 0 0 0 0 0 0 0 0 0 127 0" result="hardAlpha"/>
<feOffset dy="-0.329354"/>
<feGaussianBlur stdDeviation="0.329354"/>
<feComposite in2="hardAlpha" operator="arithmetic" k2="-1" k3="1"/>
<feColorMatrix type="matrix" values="0 0 0 0 0 0 0 0 0 0 0 0 0 0 0 0 0 0 0.25 0"/>
<feBlend mode="normal" in2="effect2_innerShadow_1006_6731" result="effect3_innerShadow_1006_6731"/>
</filter>
<filter id="filter12_dii_1006_6731" x="349.671" y="439.436" width="46.6223" height="48.9106" filterUnits="userSpaceOnUse" color-interpolation-filters="sRGB">
<feFlood flood-opacity="0" result="BackgroundImageFix"/>
<feColorMatrix in="SourceAlpha" type="matrix" values="0 0 0 0 0 0 0 0 0 0 0 0 0 0 0 0 0 0 127 0" result="hardAlpha"/>
<feOffset dy="0.329354"/>
<feGaussianBlur stdDeviation="0.705627"/>
<feColorMatrix type="matrix" values="0 0 0 0 0 0 0 0 0 0 0 0 0 0 0 0 0 0 0.63 0"/>
<feBlend mode="normal" in2="BackgroundImageFix" result="effect1_dropShadow_1006_6731"/>
<feBlend mode="normal" in="SourceGraphic" in2="effect1_dropShadow_1006_6731" result="shape"/>
<feColorMatrix in="SourceAlpha" type="matrix" values="0 0 0 0 0 0 0 0 0 0 0 0 0 0 0 0 0 0 127 0" result="hardAlpha"/>
<feOffset dy="0.329354"/>
<feGaussianBlur stdDeviation="0.329354"/>
<feComposite in2="hardAlpha" operator="arithmetic" k2="-1" k3="1"/>
<feColorMatrix type="matrix" values="0 0 0 0 0 0 0 0 0 0 0 0 0 0 0 0 0 0 0.25 0"/>
<feBlend mode="normal" in2="shape" result="effect2_innerShadow_1006_6731"/>
<feColorMatrix in="SourceAlpha" type="matrix" values="0 0 0 0 0 0 0 0 0 0 0 0 0 0 0 0 0 0 127 0" result="hardAlpha"/>
<feOffset dy="-0.329354"/>
<feGaussianBlur stdDeviation="0.329354"/>
<feComposite in2="hardAlpha" operator="arithmetic" k2="-1" k3="1"/>
<feColorMatrix type="matrix" values="0 0 0 0 0 0 0 0 0 0 0 0 0 0 0 0 0 0 0.25 0"/>
<feBlend mode="normal" in2="effect2_innerShadow_1006_6731" result="effect3_innerShadow_1006_6731"/>
</filter>
<filter id="filter13_d_1006_6731" x="386.119" y="442.319" width="4.75816" height="7.44224" filterUnits="userSpaceOnUse" color-interpolation-filters="sRGB">
<feFlood flood-opacity="0" result="BackgroundImageFix"/>
<feColorMatrix in="SourceAlpha" type="matrix" values="0 0 0 0 0 0 0 0 0 0 0 0 0 0 0 0 0 0 127 0" result="hardAlpha"/>
<feOffset dx="0.660467" dy="0.660467"/>
<feGaussianBlur stdDeviation="0.230974"/>
<feColorMatrix type="matrix" values="0 0 0 0 1 0 0 0 0 1 0 0 0 0 1 0 0 0 0.24 0"/>
<feBlend mode="normal" in2="BackgroundImageFix" result="effect1_dropShadow_1006_6731"/>
<feBlend mode="normal" in="SourceGraphic" in2="effect1_dropShadow_1006_6731" result="shape"/>
</filter>
<filter id="filter14_d_1006_6731" x="353.877" y="473.096" width="17.0932" height="11.1044" filterUnits="userSpaceOnUse" color-interpolation-filters="sRGB">
<feFlood flood-opacity="0" result="BackgroundImageFix"/>
<feColorMatrix in="SourceAlpha" type="matrix" values="0 0 0 0 0 0 0 0 0 0 0 0 0 0 0 0 0 0 127 0" result="hardAlpha"/>
<feOffset dx="0.440311" dy="1.10078"/>
<feGaussianBlur stdDeviation="0.55039"/>
<feColorMatrix type="matrix" values="0 0 0 0 1 0 0 0 0 1 0 0 0 0 1 0 0 0 0.24 0"/>
<feBlend mode="normal" in2="BackgroundImageFix" result="effect1_dropShadow_1006_6731"/>
<feBlend mode="normal" in="SourceGraphic" in2="effect1_dropShadow_1006_6731" result="shape"/>
</filter>
<filter id="filter15_ddi_1006_6731" x="306.782" y="427.481" width="55.5473" height="47.5295" filterUnits="userSpaceOnUse" color-interpolation-filters="sRGB">
<feFlood flood-opacity="0" result="BackgroundImageFix"/>
<feColorMatrix in="SourceAlpha" type="matrix" values="0 0 0 0 0 0 0 0 0 0 0 0 0 0 0 0 0 0 127 0" result="hardAlpha"/>
<feOffset dx="-0.704571" dy="0.352286"/>
<feGaussianBlur stdDeviation="0.352286"/>
<feColorMatrix type="matrix" values="0 0 0 0 1 0 0 0 0 1 0 0 0 0 1 0 0 0 0.28 0"/>
<feBlend mode="normal" in2="BackgroundImageFix" result="effect1_dropShadow_1006_6731"/>
<feColorMatrix in="SourceAlpha" type="matrix" values="0 0 0 0 0 0 0 0 0 0 0 0 0 0 0 0 0 0 127 0" result="hardAlpha"/>
<feOffset dy="-0.352286"/>
<feGaussianBlur stdDeviation="0.352286"/>
<feColorMatrix type="matrix" values="0 0 0 0 1 0 0 0 0 1 0 0 0 0 1 0 0 0 0.56 0"/>
<feBlend mode="normal" in2="effect1_dropShadow_1006_6731" result="effect2_dropShadow_1006_6731"/>
<feBlend mode="normal" in="SourceGraphic" in2="effect2_dropShadow_1006_6731" result="shape"/>
<feColorMatrix in="SourceAlpha" type="matrix" values="0 0 0 0 0 0 0 0 0 0 0 0 0 0 0 0 0 0 127 0" result="hardAlpha"/>
<feOffset dx="-0.352286" dy="1.05686"/>
<feGaussianBlur stdDeviation="0.528428"/>
<feComposite in2="hardAlpha" operator="arithmetic" k2="-1" k3="1"/>
<feColorMatrix type="matrix" values="0 0 0 0 0 0 0 0 0 0 0 0 0 0 0 0 0 0 0.75 0"/>
<feBlend mode="normal" in2="shape" result="effect3_innerShadow_1006_6731"/>
</filter>
<filter id="filter16_di_1006_6731" x="273.539" y="461.755" width="47.1477" height="17.5386" filterUnits="userSpaceOnUse" color-interpolation-filters="sRGB">
<feFlood flood-opacity="0" result="BackgroundImageFix"/>
<feColorMatrix in="SourceAlpha" type="matrix" values="0 0 0 0 0 0 0 0 0 0 0 0 0 0 0 0 0 0 127 0" result="hardAlpha"/>
<feOffset dy="0.364309"/>
<feGaussianBlur stdDeviation="0.182155"/>
<feColorMatrix type="matrix" values="0 0 0 0 0.925374 0 0 0 0 0.925374 0 0 0 0 0.925374 0 0 0 0.37 0"/>
<feBlend mode="normal" in2="BackgroundImageFix" result="effect1_dropShadow_1006_6731"/>
<feBlend mode="normal" in="SourceGraphic" in2="effect1_dropShadow_1006_6731" result="shape"/>
<feColorMatrix in="SourceAlpha" type="matrix" values="0 0 0 0 0 0 0 0 0 0 0 0 0 0 0 0 0 0 127 0" result="hardAlpha"/>
<feOffset dx="-2.42885" dy="1.75812"/>
<feGaussianBlur stdDeviation="1.21443"/>
<feComposite in2="hardAlpha" operator="arithmetic" k2="-1" k3="1"/>
<feColorMatrix type="matrix" values="0 0 0 0 0 0 0 0 0 0 0 0 0 0 0 0 0 0 0.63 0"/>
<feBlend mode="normal" in2="shape" result="effect2_innerShadow_1006_6731"/>
</filter>
<filter id="filter17_f_1006_6731" x="316.009" y="456.957" width="67.3842" height="32.1535" filterUnits="userSpaceOnUse" color-interpolation-filters="sRGB">
<feFlood flood-opacity="0" result="BackgroundImageFix"/>
<feBlend mode="normal" in="SourceGraphic" in2="BackgroundImageFix" result="shape"/>
<feGaussianBlur stdDeviation="4.932" result="effect1_foregroundBlur_1006_6731"/>
</filter>
<filter id="filter18_di_1006_6731" x="284.794" y="482.978" width="5.13754" height="2.6098" filterUnits="userSpaceOnUse" color-interpolation-filters="sRGB">
<feFlood flood-opacity="0" result="BackgroundImageFix"/>
<feColorMatrix in="SourceAlpha" type="matrix" values="0 0 0 0 0 0 0 0 0 0 0 0 0 0 0 0 0 0 127 0" result="hardAlpha"/>
<feOffset dy="-0.174726"/>
<feGaussianBlur stdDeviation="0.087363"/>
<feColorMatrix type="matrix" values="0 0 0 0 0.78755 0 0 0 0 0.78755 0 0 0 0 0.78755 0 0 0 0.19 0"/>
<feBlend mode="normal" in2="BackgroundImageFix" result="effect1_dropShadow_1006_6731"/>
<feBlend mode="normal" in="SourceGraphic" in2="effect1_dropShadow_1006_6731" result="shape"/>
<feColorMatrix in="SourceAlpha" type="matrix" values="0 0 0 0 0 0 0 0 0 0 0 0 0 0 0 0 0 0 127 0" result="hardAlpha"/>
<feOffset dy="0.87363"/>
<feGaussianBlur stdDeviation="0.436815"/>
<feComposite in2="hardAlpha" operator="arithmetic" k2="-1" k3="1"/>
<feColorMatrix type="matrix" values="0 0 0 0 0 0 0 0 0 0 0 0 0 0 0 0 0 0 0.74 0"/>
<feBlend mode="normal" in2="shape" result="effect2_innerShadow_1006_6731"/>
</filter>
<filter id="filter19_di_1006_6731" x="269.058" y="483.335" width="5.13754" height="2.6098" filterUnits="userSpaceOnUse" color-interpolation-filters="sRGB">
<feFlood flood-opacity="0" result="BackgroundImageFix"/>
<feColorMatrix in="SourceAlpha" type="matrix" values="0 0 0 0 0 0 0 0 0 0 0 0 0 0 0 0 0 0 127 0" result="hardAlpha"/>
<feOffset dy="-0.174726"/>
<feGaussianBlur stdDeviation="0.087363"/>
<feColorMatrix type="matrix" values="0 0 0 0 0.78755 0 0 0 0 0.78755 0 0 0 0 0.78755 0 0 0 0.19 0"/>
<feBlend mode="normal" in2="BackgroundImageFix" result="effect1_dropShadow_1006_6731"/>
<feBlend mode="normal" in="SourceGraphic" in2="effect1_dropShadow_1006_6731" result="shape"/>
<feColorMatrix in="SourceAlpha" type="matrix" values="0 0 0 0 0 0 0 0 0 0 0 0 0 0 0 0 0 0 127 0" result="hardAlpha"/>
<feOffset dy="0.87363"/>
<feGaussianBlur stdDeviation="0.436815"/>
<feComposite in2="hardAlpha" operator="arithmetic" k2="-1" k3="1"/>
<feColorMatrix type="matrix" values="0 0 0 0 0 0 0 0 0 0 0 0 0 0 0 0 0 0 0.74 0"/>
<feBlend mode="normal" in2="shape" result="effect2_innerShadow_1006_6731"/>
</filter>
<filter id="filter20_di_1006_6731" x="238.398" y="462.618" width="36.6809" height="16.7867" filterUnits="userSpaceOnUse" color-interpolation-filters="sRGB">
<feFlood flood-opacity="0" result="BackgroundImageFix"/>
<feColorMatrix in="SourceAlpha" type="matrix" values="0 0 0 0 0 0 0 0 0 0 0 0 0 0 0 0 0 0 127 0" result="hardAlpha"/>
<feOffset dy="0.364309"/>
<feGaussianBlur stdDeviation="0.182155"/>
<feColorMatrix type="matrix" values="0 0 0 0 0.925374 0 0 0 0 0.925374 0 0 0 0 0.925374 0 0 0 0.37 0"/>
<feBlend mode="normal" in2="BackgroundImageFix" result="effect1_dropShadow_1006_6731"/>
<feBlend mode="normal" in="SourceGraphic" in2="effect1_dropShadow_1006_6731" result="shape"/>
<feColorMatrix in="SourceAlpha" type="matrix" values="0 0 0 0 0 0 0 0 0 0 0 0 0 0 0 0 0 0 127 0" result="hardAlpha"/>
<feOffset dx="-2.42885" dy="1.75812"/>
<feGaussianBlur stdDeviation="1.21443"/>
<feComposite in2="hardAlpha" operator="arithmetic" k2="-1" k3="1"/>
<feColorMatrix type="matrix" values="0 0 0 0 0 0 0 0 0 0 0 0 0 0 0 0 0 0 0.63 0"/>
<feBlend mode="normal" in2="shape" result="effect2_innerShadow_1006_6731"/>
</filter>
<filter id="filter21_di_1006_6731" x="233.101" y="463.366" width="6.03339" height="17.3468" filterUnits="userSpaceOnUse" color-interpolation-filters="sRGB">
<feFlood flood-opacity="0" result="BackgroundImageFix"/>
<feColorMatrix in="SourceAlpha" type="matrix" values="0 0 0 0 0 0 0 0 0 0 0 0 0 0 0 0 0 0 127 0" result="hardAlpha"/>
<feOffset dy="0.459032"/>
<feGaussianBlur stdDeviation="0.229516"/>
<feColorMatrix type="matrix" values="0 0 0 0 0.925374 0 0 0 0 0.925374 0 0 0 0 0.925374 0 0 0 0.37 0"/>
<feBlend mode="normal" in2="BackgroundImageFix" result="effect1_dropShadow_1006_6731"/>
<feBlend mode="normal" in="SourceGraphic" in2="effect1_dropShadow_1006_6731" result="shape"/>
<feColorMatrix in="SourceAlpha" type="matrix" values="0 0 0 0 0 0 0 0 0 0 0 0 0 0 0 0 0 0 127 0" result="hardAlpha"/>
<feOffset dx="-1.77553" dy="2.21941"/>
<feGaussianBlur stdDeviation="0.887764"/>
<feComposite in2="hardAlpha" operator="arithmetic" k2="-1" k3="1"/>
<feColorMatrix type="matrix" values="0 0 0 0 0 0 0 0 0 0 0 0 0 0 0 0 0 0 0.8 0"/>
<feBlend mode="normal" in2="shape" result="effect2_innerShadow_1006_6731"/>
</filter>
<filter id="filter22_f_1006_6731" x="245.188" y="486.948" width="70.9614" height="15.5932" filterUnits="userSpaceOnUse" color-interpolation-filters="sRGB">
<feFlood flood-opacity="0" result="BackgroundImageFix"/>
<feBlend mode="normal" in="SourceGraphic" in2="BackgroundImageFix" result="shape"/>
<feGaussianBlur stdDeviation="0.732282" result="effect1_foregroundBlur_1006_6731"/>
</filter>
<linearGradient id="paint0_linear_1006_6731" x1="108.5" y1="561" x2="108.5" y2="758" gradientUnits="userSpaceOnUse">
<stop stop-color="#F1F5FB" stop-opacity="0"/>
<stop offset="1" stop-color="#F1F5FB"/>
</linearGradient>
<linearGradient id="paint1_linear_1006_6731" x1="872.5" y1="0" x2="872.5" y2="197" gradientUnits="userSpaceOnUse">
<stop stop-color="#F1F5FB"/>
<stop offset="1" stop-color="#F1F5FB" stop-opacity="0"/>
</linearGradient>
<linearGradient id="paint2_linear_1006_6731" x1="18.4803" y1="20.3073" x2="19.4009" y2="6.6171" gradientUnits="userSpaceOnUse">
<stop stop-color="#3F3F3F"/>
<stop offset="1" stop-color="#5C5C5C"/>
</linearGradient>
<linearGradient id="paint3_linear_1006_6731" x1="17.2795" y1="17.8237" x2="12.0934" y2="-5.96908" gradientUnits="userSpaceOnUse">
<stop stop-color="#3F3F3F"/>
<stop offset="1" stop-color="#777676"/>
</linearGradient>
<linearGradient id="paint4_linear_1006_6731" x1="13.8443" y1="15.213" x2="14.534" y2="4.95713" gradientUnits="userSpaceOnUse">
<stop stop-color="#3F3F3F"/>
<stop offset="1" stop-color="#5C5C5C"/>
</linearGradient>
<linearGradient id="paint5_linear_1006_6731" x1="12.9443" y1="13.3528" x2="9.05884" y2="-4.47171" gradientUnits="userSpaceOnUse">
<stop stop-color="#3F3F3F"/>
<stop offset="1" stop-color="#777676"/>
</linearGradient>
<linearGradient id="paint6_linear_1006_6731" x1="309.665" y1="506.289" x2="321.558" y2="410.762" gradientUnits="userSpaceOnUse">
<stop stop-color="#282828"/>
<stop offset="0.664655" stop-color="#4A4949"/>
<stop offset="1" stop-color="#737373"/>
</linearGradient>
<linearGradient id="paint7_linear_1006_6731" x1="303.079" y1="503.362" x2="318.615" y2="410.12" gradientUnits="userSpaceOnUse">
<stop stop-color="#555555"/>
<stop offset="0.628054" stop-color="#797979"/>
<stop offset="1" stop-color="#B8B8B8"/>
</linearGradient>
<linearGradient id="paint8_linear_1006_6731" x1="340.788" y1="412.793" x2="321.36" y2="459.583" gradientUnits="userSpaceOnUse">
<stop stop-color="#E8EAE9"/>
<stop offset="0.498386" stop-color="#707072"/>
<stop offset="1" stop-color="#2F3032"/>
</linearGradient>
<linearGradient id="paint9_linear_1006_6731" x1="298.891" y1="563.893" x2="258.732" y2="476.435" gradientUnits="userSpaceOnUse">
<stop stop-color="#E8EAE9"/>
<stop offset="0.498386" stop-color="#707072"/>
<stop offset="1" stop-color="#2F3032"/>
</linearGradient>
<linearGradient id="paint10_linear_1006_6731" x1="353.6" y1="481.751" x2="351.603" y2="470.668" gradientUnits="userSpaceOnUse">
<stop stop-color="#ECEAEA"/>
<stop offset="1" stop-color="white" stop-opacity="0"/>
</linearGradient>
<linearGradient id="paint11_linear_1006_6731" x1="258.147" y1="542.978" x2="226.917" y2="474.772" gradientUnits="userSpaceOnUse">
<stop stop-color="#E8EAE9"/>
<stop offset="0.498386" stop-color="#707072"/>
<stop offset="1" stop-color="#2F3032"/>
</linearGradient>
<linearGradient id="paint12_linear_1006_6731" x1="252.312" y1="491.123" x2="233.989" y2="487.977" gradientUnits="userSpaceOnUse">
<stop stop-color="#E8EAE9"/>
<stop offset="0.498386" stop-color="#707072"/>
<stop offset="1" stop-color="#2F3032"/>
</linearGradient>
<linearGradient id="paint13_linear_1006_6731" x1="288.983" y1="478.106" x2="291.066" y2="513.715" gradientUnits="userSpaceOnUse">
<stop stop-color="#343434" stop-opacity="0.66"/>
<stop offset="1" stop-color="#1A1A1A"/>
</linearGradient>
</defs>
</svg>
