<svg width="30" height="30" viewBox="0 0 30 30" fill="none" xmlns="http://www.w3.org/2000/svg">
<path d="M29 14H25.9538C25.7167 11.4401 24.5919 9.04376 22.7741 7.22592C20.9562 5.40808 18.5599 4.28325 16 4.04625V1C16 0.734784 15.8946 0.48043 15.7071 0.292893C15.5196 0.105357 15.2652 0 15 0C14.7348 0 14.4804 0.105357 14.2929 0.292893C14.1054 0.48043 14 0.734784 14 1V4.04625C11.4401 4.28325 9.04376 5.40808 7.22592 7.22592C5.40808 9.04376 4.28325 11.4401 4.04625 14H1C0.734784 14 0.48043 14.1054 0.292893 14.2929C0.105357 14.4804 0 14.7348 0 15C0 15.2652 0.105357 15.5196 0.292893 15.7071C0.48043 15.8946 0.734784 16 1 16H4.04625C4.28325 18.5599 5.40808 20.9562 7.22592 22.7741C9.04376 24.5919 11.4401 25.7167 14 25.9538V29C14 29.2652 14.1054 29.5196 14.2929 29.7071C14.4804 29.8946 14.7348 30 15 30C15.2652 30 15.5196 29.8946 15.7071 29.7071C15.8946 29.5196 16 29.2652 16 29V25.9538C18.5599 25.7167 20.9562 24.5919 22.7741 22.7741C24.5919 20.9562 25.7167 18.5599 25.9538 16H29C29.2652 16 29.5196 15.8946 29.7071 15.7071C29.8946 15.5196 30 15.2652 30 15C30 14.7348 29.8946 14.4804 29.7071 14.2929C29.5196 14.1054 29.2652 14 29 14ZM15 24C13.22 24 11.4799 23.4722 9.99987 22.4832C8.51982 21.4943 7.36627 20.0887 6.68508 18.4442C6.0039 16.7996 5.82567 14.99 6.17293 13.2442C6.5202 11.4984 7.37737 9.89471 8.63604 8.63604C9.89471 7.37737 11.4984 6.5202 13.2442 6.17293C14.99 5.82567 16.7996 6.0039 18.4442 6.68508C20.0887 7.36627 21.4943 8.51982 22.4832 9.99987C23.4722 11.4799 24 13.22 24 15C23.9974 17.3861 23.0483 19.6738 21.361 21.361C19.6738 23.0483 17.3861 23.9974 15 24ZM15 10C14.0111 10 13.0444 10.2932 12.2221 10.8427C11.3999 11.3921 10.759 12.173 10.3806 13.0866C10.0022 14.0002 9.90315 15.0055 10.0961 15.9755C10.289 16.9454 10.7652 17.8363 11.4645 18.5355C12.1637 19.2348 13.0546 19.711 14.0245 19.9039C14.9945 20.0969 15.9998 19.9978 16.9134 19.6194C17.827 19.241 18.6079 18.6001 19.1573 17.7779C19.7068 16.9556 20 15.9889 20 15C20 13.6739 19.4732 12.4021 18.5355 11.4645C17.5979 10.5268 16.3261 10 15 10ZM15 18C14.4067 18 13.8266 17.8241 13.3333 17.4944C12.8399 17.1648 12.4554 16.6962 12.2284 16.1481C12.0013 15.5999 11.9419 14.9967 12.0576 14.4147C12.1734 13.8328 12.4591 13.2982 12.8787 12.8787C13.2982 12.4591 13.8328 12.1734 14.4147 12.0576C14.9967 11.9419 15.5999 12.0013 16.1481 12.2284C16.6962 12.4554 17.1648 12.8399 17.4944 13.3333C17.8241 13.8266 18 14.4067 18 15C18 15.7956 17.6839 16.5587 17.1213 17.1213C16.5587 17.6839 15.7956 18 15 18Z" fill="#101585"/>
</svg>
