<svg width="30" height="22" viewBox="0 0 30 22" fill="none" xmlns="http://www.w3.org/2000/svg">
<path d="M20.9997 21C20.9997 21.2652 20.8944 21.5196 20.7068 21.7071C20.5193 21.8946 20.265 22 19.9997 22H1.99974C1.73452 22 1.48017 21.8946 1.29263 21.7071C1.1051 21.5196 0.99974 21.2652 0.99974 21C0.99974 20.7348 1.1051 20.4804 1.29263 20.2929C1.48017 20.1054 1.73452 20 1.99974 20H19.9997C20.265 20 20.5193 20.1054 20.7068 20.2929C20.8944 20.4804 20.9997 20.7348 20.9997 21ZM29.9822 5.64374C29.9561 5.78293 29.9006 5.91496 29.8196 6.03111C29.7386 6.14726 29.6338 6.24488 29.5122 6.31749L11.086 17.3175C10.3179 17.7679 9.4439 18.006 8.55349 18.0075C7.28513 18.0061 6.06527 17.52 5.14349 16.6487L5.12849 16.6337L0.62474 12.225C0.386451 11.9987 0.207592 11.7172 0.103977 11.4053C0.000361472 11.0935 -0.0248164 10.7609 0.0306695 10.437C0.0861554 10.1131 0.220595 9.8079 0.422101 9.54832C0.623607 9.28874 0.88597 9.08281 1.18599 8.94874L1.56099 8.765C1.79781 8.64873 2.07098 8.63076 2.32099 8.715L5.85349 9.9075L8.37474 8.38249L5.64599 5.73375C5.40059 5.50766 5.21565 5.22377 5.10803 4.90793C5.0004 4.5921 4.97351 4.25435 5.02979 3.92546C5.08608 3.59657 5.22376 3.28699 5.43028 3.02492C5.63681 2.76285 5.90562 2.55661 6.21224 2.42499L6.25224 2.40874L7.14599 2.06999C7.37133 1.98597 7.6194 1.98597 7.84474 2.06999L14.5872 4.54749L21.0335 0.699995C22.0608 0.088604 23.2737 -0.132655 24.4507 0.0766659C25.6277 0.285987 26.69 0.911905 27.4435 1.83999L27.4585 1.85874L29.7885 4.845C29.8755 4.95681 29.9378 5.08584 29.9712 5.22354C30.0046 5.36125 30.0084 5.50448 29.9822 5.64374ZM27.5147 5.18124L25.8897 3.09749C25.4375 2.5442 24.8017 2.17153 24.0979 2.04721C23.3942 1.92289 22.6692 2.05516 22.0547 2.41999L15.2047 6.50999C15.0764 6.58606 14.9329 6.6327 14.7844 6.64653C14.6359 6.66037 14.4861 6.64106 14.346 6.58999L7.49974 4.07249L6.99974 4.26374L7.02599 4.28874L10.696 7.85C10.8056 7.95649 10.8893 8.0867 10.9408 8.2306C10.9922 8.37451 11.01 8.52829 10.9927 8.68013C10.9755 8.83198 10.9236 8.97785 10.8412 9.10654C10.7588 9.23523 10.648 9.34331 10.5172 9.42249L6.49099 11.8587C6.36644 11.934 6.22697 11.9811 6.08232 11.9969C5.93767 12.0126 5.79132 11.9966 5.65349 11.95L2.06974 10.7412L2.04599 10.7537L1.99974 10.775C2.00576 10.7793 2.01122 10.7843 2.01599 10.79L6.51599 15.1975C6.98562 15.6388 7.5856 15.9161 8.22606 15.9877C8.86651 16.0594 9.51294 15.9216 10.0685 15.595L27.5147 5.18124Z" fill="#101585"/>
</svg>
