<svg width="25" height="24" viewBox="0 0 25 24" fill="none" xmlns="http://www.w3.org/2000/svg">
<path d="M13.0007 6.00004V11.4338L17.5157 14.1425C17.7432 14.2791 17.907 14.5005 17.9713 14.7579C18.0355 15.0153 17.9948 15.2876 17.8582 15.515C17.7217 15.7425 17.5003 15.9063 17.2429 15.9705C16.9855 16.0348 16.7132 15.9941 16.4857 15.8575L11.4857 12.8575C11.3378 12.7686 11.2153 12.6429 11.1303 12.4927C11.0453 12.3424 11.0007 12.1727 11.0007 12V6.00004C11.0007 5.73483 11.1061 5.48047 11.2936 5.29294C11.4812 5.1054 11.7355 5.00004 12.0007 5.00004C12.266 5.00004 12.5203 5.1054 12.7079 5.29294C12.8954 5.48047 13.0007 5.73483 13.0007 6.00004ZM24.0007 3.00004C23.7355 3.00004 23.4812 3.1054 23.2936 3.29294C23.1061 3.48047 23.0007 3.73483 23.0007 4.00004V6.25004C22.207 5.33004 21.397 4.44379 20.4857 3.52129C18.8181 1.85343 16.6959 0.71399 14.3843 0.245361C12.0727 -0.223269 9.67431 -0.000310421 7.48873 0.886376C5.30316 1.77306 3.42734 3.28416 2.09567 5.23085C0.763994 7.17754 0.0355194 9.47349 0.00126603 11.8318C-0.0329873 14.1902 0.6285 16.5063 1.90307 18.4909C3.17765 20.4754 5.00879 22.0403 7.16769 22.9901C9.32659 23.9399 11.7175 24.2324 14.0417 23.8311C16.3659 23.4298 18.5203 22.3525 20.2357 20.7338C20.3313 20.6435 20.4081 20.5353 20.4618 20.4153C20.5155 20.2953 20.5451 20.166 20.5488 20.0346C20.5525 19.9032 20.5303 19.7723 20.4835 19.6495C20.4366 19.5267 20.366 19.4143 20.2757 19.3188C20.1855 19.2233 20.0772 19.1464 19.9573 19.0927C19.8373 19.039 19.7079 19.0094 19.5765 19.0057C19.4451 19.002 19.3143 19.0242 19.1915 19.0711C19.0687 19.1179 18.9563 19.1885 18.8607 19.2788C17.4308 20.6264 15.6355 21.5229 13.6992 21.8563C11.7628 22.1897 9.77106 21.9452 7.97276 21.1535C6.17447 20.3617 4.64927 19.0577 3.58764 17.4043C2.52601 15.7509 1.97499 13.8214 2.00339 11.8567C2.03179 9.89205 2.63836 7.97927 3.74734 6.35726C4.85632 4.73525 6.41857 3.47589 8.239 2.73643C10.0594 1.99698 12.0574 1.81021 13.9833 2.19945C15.9093 2.58868 17.6779 3.53668 19.0682 4.92504C20.0857 5.95504 20.977 6.94754 21.8757 8.00004H19.0007C18.7355 8.00004 18.4812 8.1054 18.2936 8.29294C18.1061 8.48047 18.0007 8.73483 18.0007 9.00004C18.0007 9.26526 18.1061 9.51961 18.2936 9.70715C18.4812 9.89469 18.7355 10 19.0007 10H24.0007C24.266 10 24.5203 9.89469 24.7079 9.70715C24.8954 9.51961 25.0007 9.26526 25.0007 9.00004V4.00004C25.0007 3.73483 24.8954 3.48047 24.7079 3.29294C24.5203 3.1054 24.266 3.00004 24.0007 3.00004Z" fill="#101585"/>
</svg>
